<?xml version="1.0" encoding="UTF-8" standalone="no"?>
<!DOCTYPE svg PUBLIC "-//W3C//DTD SVG 1.1//EN" "http://www.w3.org/Graphics/SVG/1.1/DTD/svg11.dtd">
<svg width="100%" height="100%" viewBox="0 0 2160 1080" version="1.1" xmlns="http://www.w3.org/2000/svg" xmlns:xlink="http://www.w3.org/1999/xlink" xml:space="preserve" xmlns:serif="http://www.serif.com/" style="fill-rule:evenodd;clip-rule:evenodd;stroke-linejoin:round;stroke-miterlimit:2;">
    <rect x="0" y="0" width="2160" height="1080" style="fill:#0d1a16;"/>
    <g>
        <path d="M1848,540l0,512l-768,-0l0,-512c-0,-282.77 171.923,-512 384,-512c212.077,0 384,229.23 384,512Z" style="fill:#fff;"/>
        <clipPath id="_clip1">
            <path d="M1848,540l0,512l-768,-0l0,-512c-0,-282.77 171.923,-512 384,-512c212.077,0 384,229.23 384,512Z"/>
        </clipPath>
        <g clip-path="url(#_clip1)">
            <g>
                <circle cx="1464" cy="352" r="580" style="fill:#e7ffff;"/>
                <path d="M1464,-234c323.422,0 586,262.578 586,586c0,323.422 -262.578,586 -586,586c-323.422,-0 -586,-262.578 -586,-586c0,-323.422 262.578,-586 586,-586Zm0,6c-320.111,0 -580,259.889 -580,580c0,320.111 259.889,580 580,580c320.111,-0 580,-259.889 580,-580c0,-320.111 -259.889,-580 -580,-580Z" style="fill:#0d1a16;"/>
                <path d="M1464,-228c320.111,0 580,259.889 580,580c0,320.111 -259.889,580 -580,580c-320.111,0 -580,-259.889 -580,-580c0,-320.111 259.889,-580 580,-580Zm0,290c160.055,0 290,129.945 290,290c0,160.055 -129.945,290 -290,290c-160.055,0 -290,-129.945 -290,-290c0,-160.055 129.945,-290 290,-290Z" style="fill:#95b1ae;"/>
                <path d="M1464,-234c323.422,0 586,262.578 586,586c0,323.422 -262.578,586 -586,586c-323.422,-0 -586,-262.578 -586,-586c0,-323.422 262.578,-586 586,-586Zm0,6c-320.111,0 -580,259.889 -580,580c0,320.111 259.889,580 580,580c320.111,-0 580,-259.889 580,-580c0,-320.111 -259.889,-580 -580,-580Zm0,290c160.055,0 290,129.945 290,290c0,160.055 -129.945,290 -290,290c-160.055,-0 -290,-129.945 -290,-290c0,-160.055 129.945,-290 290,-290Zm0,6c-156.744,0 -284,127.256 -284,284c0,156.744 127.256,284 284,284c156.744,-0 284,-127.256 284,-284c0,-156.744 -127.256,-284 -284,-284Z" style="fill:#0d1a16;"/>
                <path d="M2039.04,276.295c-37.991,-288.572 -283.976,-504.295 -575.038,-504.295c-320.111,0 -580,259.889 -580,580c0,320.111 259.889,580 580,580c243.831,0 461.627,-152.502 545.022,-381.628l-545.022,-198.372l575.038,-75.705Z" style="fill:#ff758f;"/>
                <path d="M2039.43,279.269l-562.883,74.105l533.501,194.179c1.557,0.566 2.359,2.288 1.793,3.845c-83.827,230.311 -302.749,383.602 -547.841,383.602c-321.766,0 -583,-261.234 -583,-583c0,-321.766 261.234,-583 583,-583c292.568,0 539.825,216.839 578.012,506.903c0.217,1.643 -0.94,3.15 -2.582,3.366Zm-3.766,-5.556c-39.087,-285.587 -283.108,-498.713 -571.664,-498.713c-318.455,0 -577,258.545 -577,577c0,318.455 258.545,577 577,577c241.569,0 457.451,-150.464 541.169,-376.838l-542.195,-197.343c-1.299,-0.473 -2.107,-1.772 -1.956,-3.146c0.15,-1.374 1.22,-2.467 2.59,-2.647l572.056,-75.313Z" style="fill:#0d1a16;"/>
                <path d="M2039.04,276.295c-37.991,-288.572 -283.976,-504.295 -575.038,-504.295c-320.111,0 -580,259.889 -580,580c0,320.111 259.889,580 580,580c243.831,0 461.627,-152.502 545.022,-381.628l-327.013,-119.023c-33.358,91.65 -120.477,152.651 -218.009,152.651c-128.044,0 -232,-103.956 -232,-232c-0,-128.044 103.956,-232 232,-232c116.425,-0 214.819,86.289 230.015,201.718l345.023,-45.423Z" style="fill:#8c4151;"/>
                <path d="M2039.43,279.269l-345.023,45.423c-1.643,0.217 -3.15,-0.94 -3.366,-2.582c-15,-113.937 -112.122,-199.11 -227.041,-199.11c-126.389,-0 -229,102.611 -229,229c-0,126.389 102.611,229 229,229c96.271,0 182.263,-60.212 215.19,-150.677c0.566,-1.557 2.288,-2.36 3.845,-1.793l327.013,119.023c1.557,0.566 2.359,2.288 1.793,3.845c-83.827,230.311 -302.749,383.602 -547.841,383.602c-321.766,0 -583,-261.234 -583,-583c0,-321.766 261.234,-583 583,-583c292.568,0 539.825,216.839 578.012,506.903c0.217,1.643 -0.94,3.15 -2.582,3.366Zm-3.766,-5.556c-39.087,-285.587 -283.108,-498.713 -571.664,-498.713c-318.455,0 -577,258.545 -577,577c0,318.455 258.545,577 577,577c241.569,0 457.451,-150.464 541.169,-376.838c-30.118,-10.962 -291.396,-106.06 -321.385,-116.975c-34.535,91.269 -121.991,151.813 -219.784,151.813c-129.7,0 -235,-105.3 -235,-235c-0,-129.7 105.3,-235 235,-235c116.929,-0 215.903,85.927 232.579,201.354l339.085,-44.641Z" style="fill:#0d1a16;"/>
                <path d="M2009.02,153.628c-83.395,-229.126 -301.191,-381.628 -545.022,-381.628c-320.111,0 -580,259.889 -580,580c0,320.111 259.889,580 580,580c243.831,0 461.627,-152.502 545.022,-381.628l-545.022,-198.372l545.022,-198.372Z" style="fill:#f2d479;"/>
                <path d="M2010.05,156.447l-537.277,195.553l537.277,195.553c1.557,0.566 2.359,2.288 1.793,3.845c-83.827,230.311 -302.749,383.602 -547.841,383.602c-321.766,0 -583,-261.234 -583,-583c0,-321.766 261.234,-583 583,-583c245.092,0 464.014,153.291 547.841,383.602c0.566,1.557 -0.236,3.279 -1.793,3.845Zm-4.879,-4.609c-83.718,-226.374 -299.6,-376.838 -541.169,-376.838c-318.455,0 -577,258.545 -577,577c0,318.455 258.545,577 577,577c241.569,0 457.451,-150.464 541.169,-376.838l-542.195,-197.343c-1.185,-0.431 -1.974,-1.558 -1.974,-2.819c-0,-1.261 0.789,-2.388 1.974,-2.819l542.195,-197.343Z" style="fill:#0d1a16;"/>
                <path d="M2009.02,153.628c-83.395,-229.126 -301.191,-381.628 -545.022,-381.628c-320.111,0 -580,259.889 -580,580c0,320.111 259.889,580 580,580c243.831,0 461.627,-152.502 545.022,-381.628l-354.264,-128.942c-29.189,80.194 -105.417,133.57 -190.758,133.57c-112.039,-0 -203,-90.961 -203,-203c0,-112.039 90.961,-203 203,-203c85.341,0 161.569,53.376 190.758,133.57l354.264,-128.942Z" style="fill:#736439;"/>
                <path d="M2010.05,156.447l-354.264,128.942c-1.557,0.567 -3.279,-0.236 -3.845,-1.793c-28.757,-79.009 -103.859,-131.596 -187.939,-131.596c-110.383,0 -200,89.617 -200,200c0,110.383 89.617,200 200,200c84.08,-0 159.182,-52.587 187.939,-131.596c0.566,-1.557 2.288,-2.36 3.845,-1.793l354.264,128.942c1.557,0.566 2.359,2.288 1.793,3.845c-83.827,230.311 -302.749,383.602 -547.841,383.602c-321.766,0 -583,-261.234 -583,-583c0,-321.766 261.234,-583 583,-583c245.092,0 464.014,153.291 547.841,383.602c0.566,1.557 -0.236,3.279 -1.793,3.845Zm-4.879,-4.609c-83.718,-226.374 -299.6,-376.838 -541.169,-376.838c-318.455,0 -577,258.545 -577,577c0,318.455 258.545,577 577,577c241.569,0 457.451,-150.464 541.169,-376.838c0,0 -348.639,-126.894 -348.639,-126.894c-30.363,79.813 -106.929,132.732 -192.53,132.732c-113.694,-0 -206,-92.306 -206,-206c0,-113.694 92.306,-206 206,-206c85.601,0 162.167,52.919 192.53,132.732l348.639,-126.894Z" style="fill:#0d1a16;"/>
                <path d="M1953.17,40.366c-106.492,-167.159 -290.968,-268.366 -489.167,-268.366c-320.111,0 -580,259.889 -580,580c0,320.111 259.889,580 580,580c243.831,0 461.627,-152.502 545.022,-381.628l-545.022,-198.372l489.167,-311.634Z" style="fill:#b9fc7e;"/>
                <path d="M1954.78,42.896l-484.036,308.366l539.305,196.291c1.557,0.566 2.359,2.288 1.793,3.845c-83.827,230.311 -302.749,383.602 -547.841,383.602c-321.766,0 -583,-261.234 -583,-583c0,-321.766 261.234,-583 583,-583c199.224,0 384.654,101.731 491.697,269.754c0.89,1.398 0.479,3.252 -0.918,4.142Zm-5.761,-3.444c-106.185,-164.787 -288.845,-264.452 -485.018,-264.452c-318.455,0 -577,258.545 -577,577c0,318.455 258.545,577 577,577c241.569,0 457.451,-150.464 541.169,-376.838l-542.195,-197.343c-1.073,-0.391 -1.832,-1.357 -1.956,-2.492c-0.125,-1.136 0.407,-2.243 1.37,-2.857l486.63,-310.018Z" style="fill:#0d1a16;"/>
                <path d="M1953.17,40.366c-106.492,-167.159 -290.968,-268.366 -489.167,-268.366c-320.111,0 -580,259.889 -580,580c0,320.111 259.889,580 580,580c243.831,0 461.627,-152.502 545.022,-381.628l-327.013,-119.023c-33.358,91.65 -120.477,152.651 -218.009,152.651c-128.044,0 -232,-103.956 -232,-232c-0,-128.044 103.956,-232 232,-232c79.279,-0 153.07,40.483 195.667,107.346l293.5,-186.98Z" style="fill:#5c7d3e;"/>
                <path d="M1954.78,42.896l-293.5,186.981c-1.398,0.89 -3.252,0.479 -4.142,-0.919c-42.046,-65.999 -114.883,-105.958 -193.137,-105.958c-126.389,-0 -229,102.611 -229,229c-0,126.389 102.611,229 229,229c96.271,0 182.263,-60.212 215.19,-150.677c0.566,-1.557 2.288,-2.36 3.845,-1.793l327.013,119.023c1.557,0.566 2.359,2.288 1.793,3.845c-83.827,230.311 -302.749,383.602 -547.841,383.602c-321.766,0 -583,-261.234 -583,-583c0,-321.766 261.234,-583 583,-583c199.224,0 384.654,101.731 491.697,269.754c0.89,1.398 0.479,3.252 -0.918,4.142Zm-5.761,-3.444c-106.185,-164.787 -288.845,-264.452 -485.018,-264.452c-318.455,0 -577,258.545 -577,577c0,318.455 258.545,577 577,577c241.569,0 457.451,-150.464 541.169,-376.838c-30.118,-10.962 -291.396,-106.06 -321.385,-116.975c-34.535,91.269 -121.991,151.813 -219.784,151.813c-129.7,0 -235,-105.3 -235,-235c-0,-129.7 105.3,-235 235,-235c79.304,-0 153.185,39.991 196.569,106.215l288.449,-183.763Z" style="fill:#0d1a16;"/>
                <path d="M1874.12,-58.122c-108.771,-108.771 -256.296,-169.878 -410.122,-169.878c-320.111,0 -580,259.889 -580,580c0,320.111 259.889,580 580,580c243.831,0 461.627,-152.502 545.022,-381.628l-545.022,-198.372l410.122,-410.122Z" style="fill:#7ee6cc;"/>
                <path d="M1876.24,-56.001l-406.792,406.793l540.597,196.761c1.557,0.566 2.359,2.288 1.793,3.845c-83.827,230.311 -302.749,383.602 -547.841,383.602c-321.766,0 -583,-261.234 -583,-583c0,-321.766 261.234,-583 583,-583c154.621,0 302.91,61.423 412.243,170.757c1.172,1.171 1.172,3.071 0,4.242Zm-6.369,-2.115c-108.001,-106.885 -253.844,-166.884 -405.874,-166.884c-318.455,0 -577,258.545 -577,577c0,318.455 258.545,577 577,577c241.569,0 457.451,-150.464 541.169,-376.838l-542.195,-197.343c-0.963,-0.351 -1.681,-1.169 -1.903,-2.17c-0.222,-1.001 0.083,-2.045 0.808,-2.77l407.995,-407.995Z" style="fill:#0d1a16;"/>
                <path d="M1874.12,-58.122c-108.771,-108.771 -256.296,-169.878 -410.122,-169.878c-320.111,0 -580,259.889 -580,580c0,320.111 259.889,580 580,580c243.831,0 461.627,-152.502 545.022,-381.628l-354.264,-128.942c-29.189,80.194 -105.417,133.57 -190.758,133.57c-112.039,-0 -203,-90.961 -203,-203c0,-112.039 90.961,-203 203,-203c53.839,0 105.473,21.387 143.543,59.457l266.579,-266.579Z" style="fill:#38665b;"/>
                <path d="M1876.24,-56.001l-266.579,266.58c-1.172,1.171 -3.071,1.171 -4.243,-0c-37.507,-37.508 -88.378,-58.579 -141.421,-58.579c-110.383,0 -200,89.617 -200,200c0,110.383 89.617,200 200,200c84.08,-0 159.182,-52.587 187.939,-131.596c0.566,-1.557 2.288,-2.36 3.845,-1.793l354.264,128.942c1.557,0.566 2.359,2.288 1.793,3.845c-83.827,230.311 -302.749,383.602 -547.841,383.602c-321.766,0 -583,-261.234 -583,-583c0,-321.766 261.234,-583 583,-583c154.621,0 302.91,61.423 412.243,170.757c1.172,1.171 1.172,3.071 0,4.242Zm-6.369,-2.115c-108.001,-106.885 -253.844,-166.884 -405.874,-166.884c-318.455,0 -577,258.545 -577,577c0,318.455 258.545,577 577,577c241.569,0 457.451,-150.464 541.169,-376.838c0,0 -348.639,-126.894 -348.639,-126.894c-30.363,79.813 -106.929,132.732 -192.53,132.732c-113.694,-0 -206,-92.306 -206,-206c0,-113.694 92.306,-206 206,-206c53.634,0 105.111,20.916 143.527,58.23l262.347,-262.346Z" style="fill:#0d1a16;"/>
                <path d="M1775.63,-137.167c-93.116,-59.321 -201.228,-90.833 -311.634,-90.833c-320.111,0 -580,259.889 -580,580c0,320.111 259.889,580 580,580c243.831,0 461.627,-152.502 545.022,-381.628l-545.022,-198.372l311.634,-489.167Z" style="fill:#7e95fc;"/>
                <path d="M1778.16,-135.555l-309.625,486.014l541.509,197.094c1.557,0.566 2.359,2.288 1.793,3.845c-83.827,230.311 -302.749,383.602 -547.841,383.602c-321.766,0 -583,-261.234 -583,-583c0,-321.766 261.234,-583 583,-583c110.977,0 219.649,31.675 313.246,91.303c1.397,0.89 1.808,2.744 0.918,4.142Zm-6.677,-0.687c-92.058,-57.977 -198.652,-88.758 -307.487,-88.758c-318.455,0 -577,258.545 -577,577c0,318.455 258.545,577 577,577c241.569,0 457.451,-150.464 541.169,-376.838l-542.195,-197.343c-0.855,-0.311 -1.522,-0.993 -1.815,-1.855c-0.292,-0.861 -0.178,-1.809 0.311,-2.576l310.017,-486.63Z" style="fill:#0d1a16;"/>
                <path d="M1775.63,-137.167c-93.116,-59.321 -201.228,-90.833 -311.634,-90.833c-320.111,0 -580,259.889 -580,580c0,320.111 259.889,580 580,580c243.831,0 461.627,-152.502 545.022,-381.628l-327.013,-119.023c-33.358,91.65 -120.477,152.651 -218.009,152.651c-128.044,0 -232,-103.956 -232,-232c-0,-128.044 103.956,-232 232,-232c44.162,-0 87.407,12.605 124.654,36.333l186.98,-293.5Z" style="fill:#3e4a7d;"/>
                <path d="M1778.16,-135.555l-186.98,293.5c-0.891,1.397 -2.745,1.809 -4.142,0.918c-36.765,-23.421 -79.451,-35.863 -123.042,-35.863c-126.389,-0 -229,102.611 -229,229c-0,126.389 102.611,229 229,229c96.271,0 182.263,-60.212 215.19,-150.677c0.566,-1.557 2.288,-2.36 3.845,-1.793l327.013,119.023c1.557,0.566 2.359,2.288 1.793,3.845c-83.827,230.311 -302.749,383.602 -547.841,383.602c-321.766,0 -583,-261.234 -583,-583c0,-321.766 261.234,-583 583,-583c110.977,0 219.649,31.675 313.246,91.303c1.397,0.89 1.808,2.744 0.918,4.142Zm-6.677,-0.687c-92.058,-57.977 -198.652,-88.758 -307.487,-88.758c-318.455,0 -577,258.545 -577,577c0,318.455 258.545,577 577,577c241.569,0 457.451,-150.464 541.169,-376.838c-30.118,-10.962 -291.396,-106.06 -321.385,-116.975c-34.535,91.269 -121.991,151.813 -219.784,151.813c-129.7,0 -235,-105.3 -235,-235c-0,-129.7 105.3,-235 235,-235c43.733,-0 86.578,12.203 123.725,35.207l183.762,-288.449Z" style="fill:#0d1a16;"/>
                <path d="M1662.37,-193.022c-63.578,-23.14 -130.714,-34.978 -198.372,-34.978c-320.111,0 -580,259.889 -580,580c0,320.111 259.889,580 580,580c243.831,0 461.627,-152.502 545.022,-381.628l-545.022,-198.372l198.372,-545.022Z" style="fill:#f382ff;"/>
                <path d="M1665.19,-191.996l-197.346,542.203l542.203,197.346c1.557,0.566 2.359,2.288 1.793,3.845c-83.827,230.311 -302.749,383.602 -547.841,383.602c-321.766,0 -583,-261.234 -583,-583c0,-321.766 261.234,-583 583,-583c68.008,0 135.491,11.899 199.398,35.159c1.557,0.567 2.359,2.288 1.793,3.845Zm-6.667,0.775c-62.412,-22.35 -128.216,-33.779 -194.524,-33.779c-318.455,0 -577,258.545 -577,577c0,318.455 258.545,577 577,577c241.569,0 457.451,-150.464 541.169,-376.838l-542.195,-197.343c-1.557,-0.567 -2.36,-2.288 -1.793,-3.845l197.343,-542.195Z" style="fill:#0d1a16;"/>
                <path d="M1662.37,-193.022c-63.578,-23.14 -130.714,-34.978 -198.372,-34.978c-320.111,0 -580,259.889 -580,580c0,320.111 259.889,580 580,580c243.831,0 461.627,-152.502 545.022,-381.628l-354.264,-128.942c-29.189,80.194 -105.417,133.57 -190.758,133.57c-112.039,-0 -203,-90.961 -203,-203c0,-112.039 90.961,-203 203,-203c23.68,0 47.178,4.143 69.43,12.242l128.942,-354.264Z" style="fill:#794180;"/>
                <path d="M1665.19,-191.996l-128.942,354.264c-0.567,1.557 -2.288,2.36 -3.845,1.793c-21.923,-7.979 -45.074,-12.061 -68.404,-12.061c-110.383,0 -200,89.617 -200,200c0,110.383 89.617,200 200,200c84.08,-0 159.182,-52.587 187.939,-131.596c0.566,-1.557 2.288,-2.36 3.845,-1.793l354.264,128.942c1.557,0.566 2.359,2.288 1.793,3.845c-83.827,230.311 -302.749,383.602 -547.841,383.602c-321.766,0 -583,-261.234 -583,-583c0,-321.766 261.234,-583 583,-583c68.008,0 135.491,11.899 199.398,35.159c1.557,0.567 2.359,2.288 1.793,3.845Zm-6.667,0.775c-62.412,-22.35 -128.216,-33.779 -194.524,-33.779c-318.455,0 -577,258.545 -577,577c0,318.455 258.545,577 577,577c241.569,0 457.451,-150.464 541.169,-376.838c0,0 -348.639,-126.894 -348.639,-126.894c-30.363,79.813 -106.929,132.732 -192.53,132.732c-113.694,-0 -206,-92.306 -206,-206c0,-113.694 92.306,-206 206,-206c23.03,0 45.89,3.862 67.63,11.418l126.894,-348.639Z" style="fill:#0d1a16;"/>
                <path d="M1539.7,-223.038c-25.1,-3.304 -50.389,-4.962 -75.705,-4.962c-320.111,0 -580,259.889 -580,580c0,320.111 259.889,580 580,580c243.831,0 461.627,-152.502 545.022,-381.628l-545.022,-198.372l75.705,-575.038Z" style="fill:#e7ffff;"/>
                <path d="M1542.68,-222.646l-75.391,572.65l542.759,197.549c1.557,0.566 2.359,2.288 1.793,3.845c-83.827,230.311 -302.749,383.602 -547.841,383.602c-321.766,0 -583,-261.234 -583,-583c0,-321.766 261.234,-583 583,-583c25.447,0 50.867,1.666 76.097,4.988c1.642,0.216 2.799,1.723 2.583,3.366Zm-6.342,2.198c-23.992,-3.031 -48.153,-4.552 -72.338,-4.552c-318.455,0 -577,258.545 -577,577c0,318.455 258.545,577 577,577c241.569,0 457.451,-150.464 541.169,-376.838l-542.195,-197.343c-1.322,-0.481 -2.132,-1.816 -1.948,-3.211l75.312,-572.056Z" style="fill:#0d1a16;"/>
                <path d="M1539.7,-223.038c-25.1,-3.304 -50.389,-4.962 -75.705,-4.962c-320.111,0 -580,259.889 -580,580c0,320.111 259.889,580 580,580c243.831,0 461.627,-152.502 545.022,-381.628l-313.388,-114.064c-35.443,97.379 -128.006,162.192 -231.634,162.192c-136.047,0 -246.5,-110.453 -246.5,-246.5c-0,-136.047 110.453,-246.5 246.5,-246.5c10.759,-0 21.507,0.704 32.175,2.109l43.53,-330.647Z" style="fill:#95b1ae;"/>
                <path d="M1542.68,-222.646l-43.531,330.646c-0.216,1.643 -1.723,2.799 -3.366,2.583c-10.537,-1.387 -21.155,-2.083 -31.783,-2.083c-134.391,-0 -243.5,109.109 -243.5,243.5c-0,134.391 109.109,243.5 243.5,243.5c102.367,0 193.804,-64.025 228.815,-160.218c0.567,-1.557 2.288,-2.36 3.845,-1.793l313.388,114.064c1.557,0.566 2.359,2.288 1.793,3.845c-83.827,230.311 -302.749,383.602 -547.841,383.602c-321.766,0 -583,-261.234 -583,-583c0,-321.766 261.234,-583 583,-583c25.447,0 50.867,1.666 76.097,4.988c1.642,0.216 2.799,1.723 2.583,3.366Zm-6.342,2.198c-23.992,-3.031 -48.153,-4.552 -72.338,-4.552c-318.455,0 -577,258.545 -577,577c0,318.455 258.545,577 577,577c241.569,0 457.451,-150.464 541.169,-376.838l-307.759,-112.015c-36.62,96.997 -129.522,161.353 -233.41,161.353c-137.703,0 -249.5,-111.797 -249.5,-249.5c-0,-137.703 111.797,-249.5 249.5,-249.5c9.89,-0 19.771,0.588 29.59,1.761l42.748,-324.709Z" style="fill:#0d1a16;"/>
                <path d="M1388.3,-223.038c-288.572,37.991 -504.295,283.976 -504.295,575.038c0,320.111 259.889,580 580,580c243.831,0 461.627,-152.502 545.022,-381.628l-545.022,-198.372l-75.705,-575.038Z" style="fill:#f382ff;"/>
                <path d="M1391.27,-223.43l75.468,573.234l543.311,197.749c1.557,0.566 2.359,2.288 1.793,3.845c-83.827,230.311 -302.749,383.602 -547.841,383.602c-321.766,0 -583,-261.234 -583,-583c0,-292.568 216.839,-539.825 506.903,-578.012c1.643,-0.217 3.15,0.94 3.366,2.582Zm-5.556,3.766c-285.587,39.087 -498.713,283.108 -498.713,571.664c0,318.455 258.545,577 577,577c241.569,0 457.451,-150.464 541.169,-376.838l-542.195,-197.343c-1.051,-0.383 -1.802,-1.318 -1.948,-2.427l-75.313,-572.056Z" style="fill:#0d1a16;"/>
                <path d="M1388.3,-223.038c-288.572,37.991 -504.295,283.976 -504.295,575.038c0,320.111 259.889,580 580,580c243.831,0 461.627,-152.502 545.022,-381.628l-354.264,-128.942c-29.189,80.194 -105.417,133.57 -190.758,133.57c-112.039,-0 -203,-90.961 -203,-203c0,-101.872 75.503,-187.966 176.503,-201.263l-49.208,-373.775Z" style="fill:#794180;"/>
                <path d="M1391.27,-223.43l49.209,373.775c0.216,1.643 -0.941,3.15 -2.583,3.366c-99.508,13.1 -173.895,97.923 -173.895,198.289c0,110.383 89.617,200 200,200c84.08,-0 159.182,-52.587 187.939,-131.596c0.566,-1.557 2.288,-2.36 3.845,-1.793l354.264,128.942c1.557,0.566 2.359,2.288 1.793,3.845c-83.827,230.311 -302.749,383.602 -547.841,383.602c-321.766,0 -583,-261.234 -583,-583c0,-292.568 216.839,-539.825 506.903,-578.012c1.643,-0.217 3.15,0.94 3.366,2.582Zm-5.556,3.766c-285.587,39.087 -498.713,283.108 -498.713,571.664c0,318.455 258.545,577 577,577c241.569,0 457.451,-150.464 541.169,-376.838c0,0 -348.639,-126.894 -348.639,-126.894c-30.363,79.813 -106.929,132.732 -192.53,132.732c-113.694,-0 -206,-92.306 -206,-206c0,-102.376 75.141,-189.05 176.14,-203.825l-48.427,-367.839Z" style="fill:#0d1a16;"/>
                <path d="M1265.63,-193.022c-229.126,83.395 -381.628,301.191 -381.628,545.022c0,320.111 259.889,580 580,580c243.831,0 461.627,-152.502 545.022,-381.628l-545.022,-198.372l-198.372,-545.022Z" style="fill:#7e95fc;"/>
                <path d="M1268.45,-194.048l197.894,543.707l543.707,197.894c1.557,0.566 2.359,2.288 1.793,3.845c-83.827,230.311 -302.749,383.602 -547.841,383.602c-321.766,0 -583,-261.234 -583,-583c0,-245.092 153.291,-464.014 383.602,-547.841c1.557,-0.566 3.279,0.236 3.845,1.793Zm-4.609,4.879c-226.374,83.718 -376.838,299.6 -376.838,541.169c0,318.455 258.545,577 577,577c241.569,0 457.451,-150.464 541.169,-376.838l-542.195,-197.343c-0.833,-0.303 -1.49,-0.96 -1.793,-1.793l-197.343,-542.195Z" style="fill:#0d1a16;"/>
                <path d="M1265.63,-193.022c-229.126,83.395 -381.628,301.191 -381.628,545.022c0,320.111 259.889,580 580,580c243.831,0 461.627,-152.502 545.022,-381.628l-327.013,-119.023c-33.358,91.65 -120.477,152.651 -218.009,152.651c-128.044,0 -232,-103.956 -232,-232c-0,-97.532 61.001,-184.651 152.651,-218.009l-119.023,-327.013Z" style="fill:#3e4a7d;"/>
                <path d="M1268.45,-194.048l119.023,327.013c0.567,1.557 -0.236,3.279 -1.793,3.845c-90.465,32.927 -150.677,118.919 -150.677,215.19c-0,126.389 102.611,229 229,229c96.271,0 182.263,-60.212 215.19,-150.677c0.566,-1.557 2.288,-2.36 3.845,-1.793l327.013,119.023c1.557,0.566 2.359,2.288 1.793,3.845c-83.827,230.311 -302.749,383.602 -547.841,383.602c-321.766,0 -583,-261.234 -583,-583c0,-245.092 153.291,-464.014 383.602,-547.841c1.557,-0.566 3.279,0.236 3.845,1.793Zm-4.609,4.879c-226.374,83.718 -376.838,299.6 -376.838,541.169c0,318.455 258.545,577 577,577c241.569,0 457.451,-150.464 541.169,-376.838c-30.118,-10.962 -291.396,-106.06 -321.385,-116.975c-34.535,91.269 -121.991,151.813 -219.784,151.813c-129.7,0 -235,-105.3 -235,-235c-0,-97.793 60.544,-185.249 151.813,-219.784l-116.975,-321.385Z" style="fill:#0d1a16;"/>
                <path d="M1152.37,-137.167c-167.159,106.492 -268.366,290.968 -268.366,489.167c0,320.111 259.889,580 580,580c243.831,0 461.627,-152.502 545.022,-381.628l-545.022,-198.372l-311.634,-489.167Z" style="fill:#7ee6cc;"/>
                <path d="M1154.9,-138.779l311.087,488.308l544.065,198.024c1.557,0.566 2.359,2.288 1.793,3.845c-83.827,230.311 -302.749,383.602 -547.841,383.602c-321.766,0 -583,-261.234 -583,-583c0,-199.224 101.731,-384.654 269.754,-491.697c1.398,-0.89 3.252,-0.479 4.142,0.918Zm-3.444,5.761c-164.787,106.185 -264.452,288.845 -264.452,485.018c0,318.455 258.545,577 577,577c241.569,0 457.451,-150.464 541.169,-376.838l-542.195,-197.343c-0.621,-0.226 -1.149,-0.65 -1.504,-1.207l-310.018,-486.63Z" style="fill:#0d1a16;"/>
                <path d="M1152.37,-137.167c-167.159,106.492 -268.366,290.968 -268.366,489.167c0,320.111 259.889,580 580,580c243.831,0 461.627,-152.502 545.022,-381.628l-354.264,-128.942c-29.189,80.194 -105.417,133.57 -190.758,133.57c-112.039,-0 -203,-90.961 -203,-203c0,-69.37 35.423,-133.936 93.928,-171.208l-202.562,-317.959Z" style="fill:#38665b;"/>
                <path d="M1154.9,-138.779l202.562,317.959c0.891,1.397 0.479,3.251 -0.918,4.142c-57.641,36.721 -92.54,100.334 -92.54,168.678c0,110.383 89.617,200 200,200c84.08,-0 159.182,-52.587 187.939,-131.596c0.566,-1.557 2.288,-2.36 3.845,-1.793l354.264,128.942c1.557,0.566 2.359,2.288 1.793,3.845c-83.827,230.311 -302.749,383.602 -547.841,383.602c-321.766,0 -583,-261.234 -583,-583c0,-199.224 101.731,-384.654 269.754,-491.697c1.398,-0.89 3.252,-0.479 4.142,0.918Zm-3.444,5.761c-164.787,106.185 -264.452,288.845 -264.452,485.018c0,318.455 258.545,577 577,577c241.569,0 457.451,-150.464 541.169,-376.838c0,0 -348.639,-126.894 -348.639,-126.894c-30.363,79.813 -106.929,132.732 -192.53,132.732c-113.694,-0 -206,-92.306 -206,-206c0,-69.394 34.931,-134.051 92.798,-172.108l-199.346,-312.91Z" style="fill:#0d1a16;"/>
                <path d="M1053.88,-58.122c-108.771,108.771 -169.878,256.296 -169.878,410.122c0,320.111 259.889,580 580,580c243.831,0 461.627,-152.502 545.022,-381.628l-545.022,-198.372l-410.122,-410.122Z" style="fill:#b9fc7e;"/>
                <path d="M1056,-60.243l409.652,409.651l544.397,198.145c1.557,0.566 2.359,2.288 1.793,3.845c-83.827,230.311 -302.749,383.602 -547.841,383.602c-321.766,0 -583,-261.234 -583,-583c0,-154.621 61.423,-302.91 170.757,-412.243c1.171,-1.172 3.071,-1.172 4.242,-0Zm-2.115,6.369c-106.885,108.001 -166.884,253.844 -166.884,405.874c0,318.455 258.545,577 577,577c241.569,0 457.451,-150.464 541.169,-376.838l-542.195,-197.343c-0.412,-0.15 -0.786,-0.388 -1.095,-0.698l-407.995,-407.995Z" style="fill:#0d1a16;"/>
                <path d="M1053.88,-58.122c-108.771,108.771 -169.878,256.296 -169.878,410.122c0,320.111 259.889,580 580,580c243.831,0 461.627,-152.502 545.022,-381.628l-327.013,-119.023c-33.358,91.65 -120.477,152.651 -218.009,152.651c-128.044,0 -232,-103.956 -232,-232c-0,-61.53 24.443,-120.54 67.951,-164.049l-246.073,-246.073Z" style="fill:#5c7d3e;"/>
                <path d="M1056,-60.243l246.074,246.073c1.171,1.171 1.171,3.071 -0,4.243c-42.946,42.945 -67.073,101.192 -67.073,161.927c-0,126.389 102.611,229 229,229c96.271,0 182.263,-60.212 215.19,-150.677c0.566,-1.557 2.288,-2.36 3.845,-1.793l327.013,119.023c1.557,0.566 2.359,2.288 1.793,3.845c-83.827,230.311 -302.749,383.602 -547.841,383.602c-321.766,0 -583,-261.234 -583,-583c0,-154.621 61.423,-302.91 170.757,-412.243c1.171,-1.172 3.071,-1.172 4.242,-0Zm-2.115,6.369c-106.885,108.001 -166.884,253.844 -166.884,405.874c0,318.455 258.545,577 577,577c241.569,0 457.451,-150.464 541.169,-376.838c-30.118,-10.962 -291.396,-106.06 -321.385,-116.975c-34.535,91.269 -121.991,151.813 -219.784,151.813c-129.7,0 -235,-105.3 -235,-235c-0,-61.325 23.97,-120.179 66.722,-164.035l-241.838,-241.839Z" style="fill:#0d1a16;"/>
                <path d="M974.833,40.366c-59.321,93.116 -90.833,201.228 -90.833,311.634c0,320.111 259.889,580 580,580c243.831,0 461.627,-152.502 545.022,-381.628l-545.022,-198.372l-489.167,-311.634Z" style="fill:#f2d479;"/>
                <path d="M976.445,37.836l488.89,311.457l544.713,198.26c1.557,0.566 2.359,2.288 1.793,3.845c-83.827,230.311 -302.749,383.602 -547.841,383.602c-321.766,0 -583,-261.234 -583,-583c0,-110.977 31.675,-219.649 91.303,-313.246c0.89,-1.397 2.744,-1.808 4.142,-0.918Zm-0.687,6.676c-57.977,92.059 -88.758,198.653 -88.758,307.488c0,318.455 258.545,577 577,577c241.569,0 457.451,-150.464 541.169,-376.838l-542.195,-197.343c-0.205,-0.075 -0.402,-0.171 -0.586,-0.289l-486.63,-310.018Z" style="fill:#0d1a16;"/>
                <path d="M974.833,40.366c-59.321,93.116 -90.833,201.228 -90.833,311.634c0,320.111 259.889,580 580,580c243.831,0 461.627,-152.502 545.022,-381.628l-354.264,-128.942c-29.189,80.194 -105.417,133.57 -190.758,133.57c-112.039,-0 -203,-90.961 -203,-203c0,-38.642 11.029,-76.481 31.792,-109.072l-317.959,-202.562Z" style="fill:#736439;"/>
                <path d="M976.445,37.836l317.958,202.562c1.398,0.89 1.809,2.745 0.919,4.142c-20.456,32.109 -31.322,69.389 -31.322,107.46c0,110.383 89.617,200 200,200c84.08,-0 159.182,-52.587 187.939,-131.596c0.566,-1.557 2.288,-2.36 3.845,-1.793l354.264,128.942c1.557,0.566 2.359,2.288 1.793,3.845c-83.827,230.311 -302.749,383.602 -547.841,383.602c-321.766,0 -583,-261.234 -583,-583c0,-110.977 31.675,-219.649 91.303,-313.246c0.89,-1.397 2.744,-1.808 4.142,-0.918Zm-0.687,6.676c-57.977,92.059 -88.758,198.653 -88.758,307.488c0,318.455 258.545,577 577,577c241.569,0 457.451,-150.464 541.169,-376.838c0,0 -348.639,-126.894 -348.639,-126.894c-30.363,79.813 -106.929,132.732 -192.53,132.732c-113.694,-0 -206,-92.306 -206,-206c0,-38.213 10.628,-75.652 30.668,-108.142l-312.91,-199.346Z" style="fill:#0d1a16;"/>
                <path d="M918.978,153.628c-23.14,63.578 -34.978,130.714 -34.978,198.372c0,320.111 259.889,580 580,580c243.831,0 461.627,-152.502 545.022,-381.628l-545.022,-198.372l-545.022,-198.372Z" style="fill:#ff758f;"/>
                <path d="M920.004,150.809l545.022,198.372l545.022,198.372c1.557,0.566 2.359,2.288 1.793,3.845c-83.827,230.311 -302.749,383.602 -547.841,383.602c-321.766,-0 -583,-261.234 -583,-583c0,-68.008 11.899,-135.491 35.159,-199.398c0.567,-1.557 2.288,-2.359 3.845,-1.793Zm0.775,6.667c-22.35,62.412 -33.779,128.216 -33.779,194.524c0,318.455 258.545,577 577,577c241.569,-0 457.451,-150.464 541.169,-376.838l-542.195,-197.343l-542.195,-197.343Z" style="fill:#0d1a16;"/>
                <path d="M918.978,153.628c-23.14,63.578 -34.978,130.714 -34.978,198.372c0,320.111 259.889,580 580,580c243.831,0 461.627,-152.502 545.022,-381.628l-327.013,-119.023c-33.358,91.65 -120.477,152.651 -218.009,152.651c-128.044,0 -232,-103.956 -232,-232c-0,-27.063 4.735,-53.918 13.991,-79.349l-327.013,-119.023Z" style="fill:#8c4151;"/>
                <path d="M920.004,150.809l327.013,119.023c1.557,0.567 2.36,2.288 1.793,3.845c-9.136,25.103 -13.81,51.61 -13.81,78.323c-0,126.389 102.611,229 229,229c96.271,0 182.263,-60.212 215.19,-150.677c0.566,-1.557 2.288,-2.36 3.845,-1.793l327.013,119.023c1.557,0.566 2.359,2.288 1.793,3.845c-83.827,230.311 -302.749,383.602 -547.841,383.602c-321.766,0 -583,-261.234 -583,-583c0,-68.008 11.899,-135.491 35.159,-199.398c0.567,-1.557 2.288,-2.359 3.845,-1.793Zm0.775,6.667c-22.35,62.412 -33.779,128.216 -33.779,194.524c0,318.455 258.545,577 577,577c241.569,0 457.451,-150.464 541.169,-376.838c-30.118,-10.962 -291.396,-106.06 -321.385,-116.975c-34.535,91.269 -121.991,151.813 -219.784,151.813c-129.7,0 -235,-105.3 -235,-235c-0,-26.413 4.453,-52.629 13.164,-77.549l-321.385,-116.975Z" style="fill:#0d1a16;"/>
                <path d="M888.962,276.295c-3.304,25.1 -4.962,50.389 -4.962,75.705c0,320.111 259.889,580 580,580c243.831,0 461.627,-152.502 545.022,-381.628l-545.022,-198.372l-575.038,-75.705Z" style="fill:#e7ffff;"/>
                <path d="M889.354,273.321l575.038,75.705c0.216,0.028 0.429,0.08 0.634,0.155l545.022,198.372c1.557,0.566 2.359,2.288 1.793,3.845c-83.827,230.311 -302.749,383.602 -547.841,383.602c-321.766,0 -583,-261.234 -583,-583c0,-25.447 1.666,-50.867 4.988,-76.097c0.216,-1.642 1.723,-2.799 3.366,-2.582Zm2.198,6.341c-3.031,23.992 -4.552,48.153 -4.552,72.338c0,318.455 258.545,577 577,577c241.569,0 457.451,-150.464 541.169,-376.838l-541.886,-197.231l-571.731,-75.269Z" style="fill:#0d1a16;"/>
                <path d="M888.962,276.295c-3.304,25.1 -4.962,50.389 -4.962,75.705c0,320.111 259.889,580 580,580c243.831,0 461.627,-152.502 545.022,-381.628l-272.511,-99.186c-41.698,114.563 -150.595,190.814 -272.511,190.814c-160.055,0 -290,-129.945 -290,-290c0,-12.658 0.829,-25.303 2.481,-37.853l-287.519,-37.852Z" style="fill:#95b1ae;"/>
                <path d="M889.354,273.321l287.519,37.852c1.642,0.216 2.799,1.723 2.582,3.366c-1.635,12.42 -2.455,24.934 -2.455,37.461c0,158.4 128.6,287 287,287c120.654,0 228.426,-75.462 269.692,-188.84c0.566,-1.557 2.288,-2.36 3.845,-1.793l272.511,99.186c1.557,0.566 2.359,2.288 1.793,3.845c-83.827,230.311 -302.749,383.602 -547.841,383.602c-321.766,0 -583,-261.234 -583,-583c0,-25.447 1.666,-50.867 4.988,-76.097c0.216,-1.642 1.723,-2.799 3.366,-2.582Zm2.198,6.341c-3.031,23.992 -4.552,48.153 -4.552,72.338c0,318.455 258.545,577 577,577c241.569,0 457.451,-150.464 541.169,-376.838l-266.879,-97.136c-42.878,114.181 -152.114,189.974 -274.29,189.974c-161.711,-0 -293,-131.289 -293,-293c0,-11.789 0.712,-23.566 2.13,-35.268l-281.578,-37.07Z" style="fill:#0d1a16;"/>
                <path d="M888.962,427.705c37.991,288.572 283.976,504.295 575.038,504.295c243.831,0 461.627,-152.502 545.022,-381.628l-545.022,-198.372l-575.038,75.705Z" style="fill:#ff758f;"/>
                <path d="M888.57,424.731l575.038,-75.705c0.479,-0.063 0.965,-0.01 1.418,0.155l545.022,198.372c1.557,0.566 2.359,2.288 1.793,3.845c-83.827,230.311 -302.749,383.602 -547.841,383.602c-292.568,0 -539.825,-216.839 -578.012,-506.903c-0.217,-1.643 0.94,-3.15 2.582,-3.366Zm3.766,5.556c39.087,285.586 283.108,498.713 571.664,498.713c241.569,0 457.451,-150.464 541.169,-376.838l-541.505,-197.092l-571.328,75.217Z" style="fill:#0d1a16;"/>
                <path d="M888.962,427.705c37.991,288.572 283.976,504.295 575.038,504.295c243.831,0 461.627,-152.502 545.022,-381.628l-299.762,-109.105c-37.528,103.107 -135.536,171.733 -245.26,171.733c-130.978,-0 -241.671,-97.075 -258.767,-226.933l-316.271,41.638Z" style="fill:#8c4151;"/>
                <path d="M888.57,424.731l316.271,-41.638c1.643,-0.216 3.15,0.94 3.366,2.583c16.9,128.365 126.321,224.324 255.793,224.324c108.463,-0 205.344,-67.837 242.441,-169.759c0.566,-1.557 2.288,-2.36 3.845,-1.793l299.762,109.105c1.557,0.566 2.359,2.288 1.793,3.845c-83.827,230.311 -302.749,383.602 -547.841,383.602c-292.568,0 -539.825,-216.839 -578.012,-506.903c-0.217,-1.643 0.94,-3.15 2.582,-3.366Zm3.766,5.556c39.087,285.586 283.108,498.713 571.664,498.713c241.569,0 457.451,-150.464 541.169,-376.838c0,0 -294.132,-107.055 -294.132,-107.055c-38.706,102.725 -137.053,170.893 -247.037,170.893c-131.482,-0 -242.755,-96.713 -261.333,-226.569l-310.331,40.856Z" style="fill:#0d1a16;"/>
                <path d="M918.978,550.372c83.395,229.126 301.191,381.628 545.022,381.628c243.831,0 461.627,-152.502 545.022,-381.628l-545.022,-198.372l-545.022,198.372Z" style="fill:#f2d479;"/>
                <path d="M917.952,547.553l545.022,-198.372c0.663,-0.241 1.389,-0.241 2.052,-0l545.022,198.372c1.557,0.566 2.359,2.288 1.793,3.845c-83.827,230.311 -302.749,383.602 -547.841,383.602c-245.092,0 -464.014,-153.291 -547.841,-383.602c-0.566,-1.557 0.236,-3.279 1.793,-3.845Zm4.879,4.609c83.718,226.374 299.6,376.838 541.169,376.838c241.569,0 457.451,-150.464 541.169,-376.838l-541.169,-196.969l-541.169,196.969Z" style="fill:#0d1a16;"/>
                <path d="M918.978,550.372c83.395,229.126 301.191,381.628 545.022,381.628c243.831,0 461.627,-152.502 545.022,-381.628l-245.26,-89.268c-45.867,126.02 -165.655,209.896 -299.762,209.896c-134.107,0 -253.895,-83.876 -299.762,-209.896l-245.26,89.268Z" style="fill:#736439;"/>
                <path d="M917.952,547.553l245.26,-89.268c1.557,-0.566 3.278,0.236 3.845,1.793c45.436,124.835 164.097,207.922 296.943,207.922c132.846,0 251.507,-83.087 296.943,-207.922c0.567,-1.557 2.288,-2.359 3.845,-1.793l245.26,89.268c1.557,0.566 2.359,2.288 1.793,3.845c-83.827,230.311 -302.749,383.602 -547.841,383.602c-245.092,0 -464.014,-153.291 -547.841,-383.602c-0.566,-1.557 0.236,-3.279 1.793,-3.845Zm4.879,4.609c83.718,226.374 299.6,376.838 541.169,376.838c241.569,0 457.451,-150.464 541.169,-376.838c0,0 -239.627,-87.217 -239.627,-87.217c-47.048,125.637 -167.175,209.055 -301.542,209.055c-134.367,0 -254.494,-83.418 -301.542,-209.055l-239.627,87.217Z" style="fill:#0d1a16;"/>
                <path d="M974.833,663.634c106.492,167.159 290.968,268.366 489.167,268.366c243.831,0 461.627,-152.502 545.022,-381.628l-545.022,-198.372l-489.167,311.634Z" style="fill:#b9fc7e;"/>
                <path d="M973.221,661.104l489.167,-311.634c0.787,-0.501 1.762,-0.608 2.638,-0.289l545.022,198.372c1.557,0.566 2.359,2.288 1.793,3.845c-83.827,230.311 -302.749,383.602 -547.841,383.602c-199.224,-0 -384.654,-101.731 -491.697,-269.754c-0.89,-1.398 -0.479,-3.252 0.918,-4.142Zm5.761,3.444c106.185,164.787 288.845,264.452 485.018,264.452c241.569,-0 457.451,-150.464 541.169,-376.838c-42.117,-15.329 -540.805,-196.837 -540.805,-196.837l-485.382,309.223Z" style="fill:#0d1a16;"/>
                <path d="M974.833,663.634c106.492,167.159 290.968,268.366 489.167,268.366c243.831,0 461.627,-152.502 545.022,-381.628l-299.762,-109.105c-37.528,103.107 -135.536,171.733 -245.26,171.733c-89.189,-0 -172.204,-45.543 -220.125,-120.765l-269.042,171.399Z" style="fill:#5c7d3e;"/>
                <path d="M973.221,661.104l269.042,-171.399c1.397,-0.89 3.252,-0.479 4.142,0.918c47.371,74.357 129.431,119.377 217.595,119.377c108.463,-0 205.344,-67.837 242.441,-169.759c0.566,-1.557 2.288,-2.36 3.845,-1.793l299.762,109.105c1.557,0.566 2.359,2.288 1.793,3.845c-83.827,230.311 -302.749,383.602 -547.841,383.602c-199.224,0 -384.654,-101.731 -491.697,-269.754c-0.89,-1.398 -0.479,-3.252 0.918,-4.142Zm5.761,3.444c106.185,164.787 288.845,264.452 485.018,264.452c241.569,0 457.451,-150.464 541.169,-376.838c0,0 -294.132,-107.055 -294.132,-107.055c-38.706,102.725 -137.053,170.893 -247.037,170.893c-89.214,-0 -172.319,-45.05 -221.029,-119.632l-263.989,168.18Z" style="fill:#0d1a16;"/>
                <path d="M1053.88,762.122c108.771,108.771 256.296,169.878 410.122,169.878c243.831,-0 461.627,-152.502 545.022,-381.628l-545.022,-198.372l-410.122,410.122Z" style="fill:#7ee6cc;"/>
                <path d="M1051.76,760.001l410.122,-410.122c0.824,-0.825 2.051,-1.097 3.147,-0.698l545.022,198.372c1.557,0.566 2.359,2.288 1.793,3.845c-83.827,230.311 -302.749,383.602 -547.841,383.602c-154.621,0 -302.91,-61.423 -412.243,-170.757c-1.172,-1.171 -1.172,-3.071 -0,-4.242Zm6.369,2.115c108.001,106.885 253.844,166.884 405.874,166.884c241.569,0 457.451,-150.464 541.169,-376.838l-540.399,-196.689l-406.644,406.643Z" style="fill:#0d1a16;"/>
                <path d="M1053.88,762.122c108.771,108.771 256.296,169.878 410.122,169.878c243.831,-0 461.627,-152.502 545.022,-381.628l-245.26,-89.268c-45.867,126.02 -165.655,209.896 -299.762,209.896c-84.604,0 -165.743,-33.609 -225.567,-93.433l-184.555,184.555Z" style="fill:#38665b;"/>
                <path d="M1051.76,760.001l184.555,-184.555c1.171,-1.172 3.071,-1.172 4.242,-0c59.262,59.261 139.638,92.554 223.446,92.554c132.846,0 251.507,-83.087 296.943,-207.922c0.567,-1.557 2.288,-2.359 3.845,-1.793l245.26,89.268c1.557,0.566 2.359,2.288 1.793,3.845c-83.827,230.311 -302.749,383.602 -547.841,383.602c-154.621,0 -302.91,-61.423 -412.243,-170.757c-1.172,-1.171 -1.172,-3.071 -0,-4.242Zm6.369,2.115c108.001,106.885 253.844,166.884 405.874,166.884c241.569,0 457.451,-150.464 541.169,-376.838c0,0 -239.627,-87.217 -239.627,-87.217c-47.048,125.637 -167.175,209.055 -301.542,209.055c-84.399,0 -165.382,-33.135 -225.557,-92.2l-180.317,180.316Z" style="fill:#0d1a16;"/>
                <path d="M1152.37,841.167c93.116,59.321 201.228,90.833 311.634,90.833c243.831,0 461.627,-152.502 545.022,-381.628l-545.022,-198.372l-311.634,489.167Z" style="fill:#7e95fc;"/>
                <path d="M1149.84,839.555l311.634,-489.167c0.756,-1.186 2.234,-1.688 3.556,-1.207l545.022,198.372c1.557,0.566 2.359,2.288 1.793,3.845c-83.827,230.311 -302.749,383.602 -547.841,383.602c-110.977,-0 -219.649,-31.675 -313.246,-91.303c-1.397,-0.89 -1.808,-2.744 -0.918,-4.142Zm6.676,0.687c92.059,57.977 198.653,88.758 307.488,88.758c241.569,-0 457.451,-150.464 541.169,-376.838l-539.933,-196.519l-308.724,484.599Z" style="fill:#0d1a16;"/>
                <path d="M1152.37,841.167c93.116,59.321 201.228,90.833 311.634,90.833c243.831,0 461.627,-152.502 545.022,-381.628l-299.762,-109.105c-37.528,103.107 -135.536,171.733 -245.26,171.733c-49.683,-0 -98.333,-14.18 -140.235,-40.875l-171.399,269.042Z" style="fill:#3e4a7d;"/>
                <path d="M1149.84,839.555l171.399,-269.042c0.89,-1.397 2.744,-1.808 4.142,-0.918c41.42,26.388 89.511,40.405 138.623,40.405c108.463,-0 205.344,-67.837 242.441,-169.759c0.566,-1.557 2.288,-2.36 3.845,-1.793l299.762,109.105c1.557,0.566 2.359,2.288 1.793,3.845c-83.827,230.311 -302.749,383.602 -547.841,383.602c-110.977,0 -219.649,-31.675 -313.246,-91.303c-1.397,-0.89 -1.808,-2.744 -0.918,-4.142Zm6.676,0.687c92.059,57.977 198.653,88.758 307.488,88.758c241.569,0 457.451,-150.464 541.169,-376.838c0,0 -294.132,-107.055 -294.132,-107.055c-38.706,102.725 -137.053,170.893 -247.037,170.893c-49.253,-0 -97.504,-13.778 -139.308,-39.747l-168.18,263.989Z" style="fill:#0d1a16;"/>
                <path d="M1265.63,897.022c63.578,23.14 130.714,34.978 198.372,34.978c243.831,0 461.627,-152.502 545.022,-381.628l-545.022,-198.372l-198.372,545.022Z" style="fill:#f382ff;"/>
                <path d="M1262.81,895.996l198.372,-545.022c0.567,-1.557 2.288,-2.36 3.845,-1.793l545.022,198.372c1.557,0.566 2.359,2.288 1.793,3.845c-83.827,230.311 -302.749,383.602 -547.841,383.602c-68.008,0 -135.491,-11.899 -199.398,-35.159c-1.557,-0.567 -2.359,-2.288 -1.793,-3.845Zm6.667,-0.775c62.412,22.35 128.216,33.779 194.524,33.779c241.569,0 457.451,-150.464 541.169,-376.838l-539.376,-196.317l-196.317,539.376Z" style="fill:#0d1a16;"/>
                <path d="M1265.63,897.022c63.578,23.14 130.714,34.978 198.372,34.978c243.831,0 461.627,-152.502 545.022,-381.628l-245.26,-89.268c-45.867,126.02 -165.655,209.896 -299.762,209.896c-37.212,0 -74.137,-6.511 -109.104,-19.238l-89.268,245.26Z" style="fill:#794180;"/>
                <path d="M1262.81,895.996l89.268,-245.26c0.566,-1.557 2.288,-2.36 3.845,-1.793c34.638,12.607 71.216,19.057 108.078,19.057c132.846,0 251.507,-83.087 296.943,-207.922c0.567,-1.557 2.288,-2.359 3.845,-1.793l245.26,89.268c1.557,0.566 2.359,2.288 1.793,3.845c-83.827,230.311 -302.749,383.602 -547.841,383.602c-68.008,0 -135.491,-11.899 -199.398,-35.159c-1.557,-0.567 -2.359,-2.288 -1.793,-3.845Zm6.667,-0.775c62.412,22.35 128.216,33.779 194.524,33.779c241.569,0 457.451,-150.464 541.169,-376.838c0,0 -239.627,-87.217 -239.627,-87.217c-47.048,125.637 -167.175,209.055 -301.542,209.055c-36.562,0 -72.849,-6.227 -107.307,-18.406l-87.217,239.627Z" style="fill:#0d1a16;"/>
                <path d="M1388.3,927.038c25.1,3.304 50.389,4.962 75.705,4.962c243.831,0 461.627,-152.502 545.022,-381.628l-545.022,-198.372l-75.705,575.038Z" style="fill:#e7ffff;"/>
                <path d="M1385.32,926.646l75.706,-575.038c0.118,-0.901 0.64,-1.701 1.418,-2.173c0.777,-0.472 1.727,-0.565 2.582,-0.254l545.022,198.372c1.557,0.566 2.359,2.288 1.793,3.845c-83.827,230.311 -302.749,383.602 -547.841,383.602c-25.447,-0 -50.867,-1.666 -76.097,-4.988c-1.642,-0.216 -2.799,-1.723 -2.583,-3.366Zm6.342,-2.198c23.992,3.031 48.153,4.552 72.338,4.552c241.569,-0 457.451,-150.464 541.169,-376.838c0,0 -538.683,-196.064 -538.683,-196.064l-74.824,568.35Z" style="fill:#0d1a16;"/>
                <path d="M1388.3,927.038c25.1,3.304 50.389,4.962 75.705,4.962c243.831,0 461.627,-152.502 545.022,-381.628l-218.009,-79.349c-50.037,137.476 -180.714,228.977 -327.013,228.977c-15.19,0 -30.363,-0.995 -45.423,-2.977l-30.282,230.015Z" style="fill:#95b1ae;"/>
                <path d="M1385.32,926.646l30.283,-230.015c0.216,-1.642 1.723,-2.799 3.365,-2.583c14.93,1.966 29.973,2.952 45.032,2.952c145.037,0 274.588,-90.712 324.194,-227.003c0.567,-1.557 2.288,-2.36 3.845,-1.793l218.009,79.349c1.557,0.566 2.359,2.288 1.793,3.845c-83.827,230.311 -302.749,383.602 -547.841,383.602c-25.447,-0 -50.867,-1.666 -76.097,-4.988c-1.642,-0.216 -2.799,-1.723 -2.583,-3.366Zm6.342,-2.198c23.992,3.031 48.153,4.552 72.338,4.552c241.569,-0 457.451,-150.464 541.169,-376.838l-212.375,-77.298c-51.219,137.094 -182.235,228.136 -328.794,228.136c-14.321,0 -28.627,-0.876 -42.839,-2.624l-29.499,224.072Z" style="fill:#0d1a16;"/>
                <path d="M1539.7,927.038c214.432,-28.231 395.344,-173.427 469.317,-376.666l-545.022,-198.372l75.705,575.038Z" style="fill:#f382ff;"/>
                <path d="M1536.73,927.43l-75.705,-575.038c-0.137,-1.04 0.279,-2.075 1.096,-2.732c0.818,-0.656 1.919,-0.838 2.904,-0.479l545.022,198.372c1.557,0.566 2.359,2.288 1.793,3.845c-74.356,204.29 -256.203,350.238 -471.744,378.614c-1.643,0.217 -3.15,-0.94 -3.366,-2.582Zm5.556,-3.766c211.03,-28.894 388.998,-171.728 462.882,-371.502c0,0 -537.549,-195.652 -537.549,-195.652l74.667,567.154Z" style="fill:#0d1a16;"/>
                <path d="M1539.7,927.038c214.432,-28.231 395.344,-173.427 469.317,-376.666l-245.26,-89.268c-40.685,111.782 -140.187,191.64 -258.124,207.167l34.067,258.767Z" style="fill:#794180;"/>
                <path d="M1536.73,927.43l-34.067,-258.768c-0.217,-1.642 0.94,-3.149 2.582,-3.365c116.829,-15.381 215.394,-94.488 255.697,-205.219c0.567,-1.557 2.288,-2.359 3.845,-1.793l245.26,89.268c1.557,0.566 2.359,2.288 1.793,3.845c-74.356,204.29 -256.203,350.238 -471.744,378.614c-1.643,0.217 -3.15,-0.94 -3.366,-2.582Zm5.556,-3.766c211.03,-28.894 388.998,-171.728 462.882,-371.502l-239.627,-87.217c-41.354,110.421 -139.785,189.421 -256.54,205.895l33.285,252.824Z" style="fill:#0d1a16;"/>
                <path d="M1662.37,897.022c161.104,-58.638 288.012,-185.546 346.65,-346.65l-545.022,-198.372l198.372,545.022Z" style="fill:#7e95fc;"/>
                <path d="M1659.55,898.048l-198.372,-545.022c-0.399,-1.096 -0.127,-2.323 0.698,-3.147c0.824,-0.825 2.051,-1.097 3.147,-0.698l545.022,198.372c1.557,0.566 2.359,2.288 1.793,3.845c-58.941,161.938 -186.505,289.502 -348.443,348.443c-1.557,0.566 -3.279,-0.236 -3.845,-1.793Zm4.609,-4.879c157.996,-58.436 282.571,-183.011 341.007,-341.007c-39.441,-14.355 -479.277,-174.443 -536.15,-195.143l195.143,536.15Z" style="fill:#0d1a16;"/>
                <path d="M1662.37,897.022c161.104,-58.638 288.012,-185.546 346.65,-346.65l-299.762,-109.105c-26.387,72.497 -83.496,129.606 -155.993,155.993l109.105,299.762Z" style="fill:#3e4a7d;"/>
                <path d="M1659.55,898.048l-109.105,-299.762c-0.566,-1.557 0.236,-3.279 1.793,-3.845c71.664,-26.084 128.116,-82.536 154.2,-154.2c0.566,-1.557 2.288,-2.36 3.845,-1.793l299.762,109.105c1.557,0.566 2.359,2.288 1.793,3.845c-58.941,161.938 -186.505,289.502 -348.443,348.443c-1.557,0.566 -3.279,-0.236 -3.845,-1.793Zm4.609,-4.879c157.996,-58.436 282.571,-183.011 341.007,-341.007c0,0 -294.132,-107.055 -294.132,-107.055c-26.78,71.058 -82.872,127.15 -153.93,153.93l107.055,294.132Z" style="fill:#0d1a16;"/>
                <path d="M1775.63,841.167c107.682,-68.601 189.719,-170.817 233.388,-290.795l-545.022,-198.372l311.634,489.167Z" style="fill:#7ee6cc;"/>
                <path d="M1773.1,842.779l-311.634,-489.167c-0.691,-1.084 -0.614,-2.487 0.19,-3.49c0.805,-1.002 2.158,-1.381 3.366,-0.941l545.022,198.372c1.557,0.566 2.359,2.288 1.793,3.845c-43.894,120.598 -126.356,223.343 -234.595,292.299c-1.398,0.89 -3.252,0.479 -4.142,-0.918Zm3.444,-5.761c105.042,-67.689 185.272,-167.653 228.621,-284.856l-533.89,-194.32l305.269,479.176Z" style="fill:#0d1a16;"/>
                <path d="M1775.63,841.167c107.682,-68.601 189.719,-170.817 233.388,-290.795l-245.26,-89.268c-24.018,65.988 -69.138,122.207 -128.363,159.938l140.235,220.125Z" style="fill:#38665b;"/>
                <path d="M1773.1,842.779l-140.236,-220.125c-0.89,-1.398 -0.479,-3.252 0.919,-4.142c58.668,-37.376 103.364,-93.066 127.156,-158.434c0.567,-1.557 2.288,-2.359 3.845,-1.793l245.26,89.268c1.557,0.566 2.359,2.288 1.793,3.845c-43.894,120.598 -126.356,223.343 -234.595,292.299c-1.398,0.89 -3.252,0.479 -4.142,-0.918Zm3.444,-5.761c105.042,-67.689 185.272,-167.653 228.621,-284.856l-239.627,-87.217c-24.142,64.456 -68.306,119.483 -126.009,157.003l137.015,215.07Z" style="fill:#0d1a16;"/>
                <path d="M1874.12,762.122c59.887,-59.888 105.933,-132.164 134.9,-211.75l-545.022,-198.372l410.122,410.122Z" style="fill:#b9fc7e;"/>
                <path d="M1872,764.243l-410.122,-410.122c-0.995,-0.994 -1.165,-2.547 -0.409,-3.733c0.756,-1.186 2.234,-1.688 3.556,-1.207l545.022,198.372c1.557,0.566 2.359,2.288 1.793,3.845c-29.117,79.998 -75.4,152.648 -135.598,212.845c-1.171,1.172 -3.071,1.172 -4.242,0Zm2.115,-6.369c57.844,-58.449 102.527,-128.586 131.053,-205.712l-529.479,-192.715l398.426,398.427Z" style="fill:#0d1a16;"/>
                <path d="M1874.12,762.122c59.887,-59.888 105.933,-132.164 134.9,-211.75l-299.762,-109.105c-13.035,35.814 -33.756,68.338 -60.705,95.288l225.567,225.567Z" style="fill:#5c7d3e;"/>
                <path d="M1872,764.243l-225.567,-225.567c-1.172,-1.171 -1.172,-3.071 -0,-4.242c26.639,-26.64 47.121,-58.791 60.007,-94.193c0.566,-1.557 2.288,-2.36 3.845,-1.793l299.762,109.105c1.557,0.566 2.359,2.288 1.793,3.845c-29.117,79.998 -75.4,152.648 -135.598,212.845c-1.171,1.172 -3.071,1.172 -4.242,0Zm2.115,-6.369c57.844,-58.449 102.527,-128.586 131.053,-205.712l-294.132,-107.055c-12.882,34.18 -32.718,65.315 -58.252,91.436l221.331,221.331Z" style="fill:#0d1a16;"/>
                <path d="M1953.17,663.634c31.79,-49.9 55.757,-104.37 71.07,-161.519l-560.237,-150.115l489.167,311.634Z" style="fill:#f2d479;"/>
                <path d="M1951.56,666.164l-489.167,-311.634c-1.249,-0.795 -1.73,-2.383 -1.134,-3.738c0.596,-1.355 2.092,-2.073 3.522,-1.69l560.237,150.115c1.601,0.429 2.551,2.074 2.122,3.675c-15.393,57.444 -39.484,112.196 -71.438,162.354c-0.89,1.397 -2.744,1.808 -4.142,0.918Zm0.687,-6.676c30.295,-48.104 53.315,-100.42 68.313,-155.254l-538.504,-144.292l470.191,299.546Z" style="fill:#0d1a16;"/>
                <path d="M1953.17,663.634c31.79,-49.9 55.757,-104.37 71.07,-161.519l-252.107,-67.552c-8.422,31.432 -21.604,61.391 -39.088,88.836l220.125,140.235Z" style="fill:#736439;"/>
                <path d="M1951.56,666.164l-220.125,-140.235c-1.397,-0.89 -1.809,-2.745 -0.918,-4.142c17.32,-27.187 30.378,-56.864 38.721,-88c0.428,-1.601 2.073,-2.55 3.674,-2.121l252.106,67.551c1.601,0.429 2.551,2.074 2.122,3.675c-15.393,57.444 -39.484,112.196 -71.438,162.354c-0.89,1.397 -2.744,1.808 -4.142,0.918Zm0.687,-6.676c30.295,-48.104 53.315,-100.42 68.313,-155.254l-246.317,-66c-8.258,29.709 -20.741,58.079 -37.066,84.239l215.07,137.015Z" style="fill:#0d1a16;"/>
                <path d="M2009.02,550.372c14.44,-39.675 24.505,-80.807 30.016,-122.667l-575.038,-75.705l545.022,198.372Z" style="fill:#ff758f;"/>
                <path d="M2008,553.191l-545.022,-198.372c-1.438,-0.523 -2.252,-2.045 -1.888,-3.532c0.364,-1.487 1.788,-2.461 3.306,-2.261l575.038,75.705c1.642,0.216 2.799,1.723 2.582,3.366c-5.539,42.076 -15.656,83.421 -30.171,123.301c-0.567,1.557 -2.288,2.359 -3.845,1.793Zm-0.775,-6.667c13.484,-37.655 23.017,-76.61 28.443,-116.237l-544.897,-71.737l516.454,187.974Z" style="fill:#0d1a16;"/>
                <path d="M2009.02,550.372c14.44,-39.675 24.505,-80.807 30.016,-122.667l-316.271,-41.638c-2.48,18.837 -7.009,37.347 -13.507,55.2l299.762,109.105Z" style="fill:#8c4151;"/>
                <path d="M2008,553.191l-299.762,-109.105c-1.557,-0.566 -2.36,-2.288 -1.793,-3.845c6.423,-17.648 10.9,-35.945 13.352,-54.565c0.216,-1.643 1.723,-2.799 3.366,-2.583l316.271,41.638c1.642,0.216 2.799,1.723 2.582,3.366c-5.539,42.076 -15.656,83.421 -30.171,123.301c-0.567,1.557 -2.288,2.359 -3.845,1.793Zm-0.775,-6.667c13.484,-37.655 23.017,-76.61 28.443,-116.237l-310.331,-40.856c-2.44,17.038 -6.541,33.797 -12.244,50.037l294.132,107.056Z" style="fill:#0d1a16;"/>
            </g>
            <g>
                <path d="M1192,721.333c0,0 28.654,21.334 64,21.334c35.346,-0 64,-21.334 64,-21.334c0,0 28.654,-21.333 64,-21.333c35.346,0 64,21.333 64,21.333c0,0 28.654,21.334 64,21.334c35.346,-0 64,-21.334 64,-21.334c0,0 28.654,-21.333 64,-21.333c35.346,0 64,21.333 64,21.333c0,0 28.654,21.334 64,21.334c35.346,-0 64,-21.334 64,-21.334c0,0 28.654,-21.333 64,-21.333c35.346,0 64,21.333 64,21.333c0,0 28.654,21.334 64,21.334c35.346,-0 64,-21.334 64,-21.334c0,0 28.654,-21.333 64,-21.333c35.346,0 64,9.551 64,21.333l0,468.449l-1152,0l0,-468.449c-0,-11.782 28.654,-21.333 64,-21.333c35.346,0 64,21.333 64,21.333Z" style="fill:#7ee6cc;"/>
                <path d="M1193.79,718.927c-0,0 27.851,20.74 62.208,20.74c34.357,-0 62.208,-20.74 62.208,-20.74c0,0 29.457,-21.927 65.792,-21.927c36.335,0 65.792,21.927 65.792,21.927c-0,0 27.851,20.74 62.208,20.74c34.357,-0 62.208,-20.74 62.208,-20.74c0,0 29.457,-21.927 65.792,-21.927c36.335,0 65.792,21.927 65.792,21.927c-0,0 27.851,20.74 62.208,20.74c34.357,-0 62.208,-20.74 62.208,-20.74c0,0 29.457,-21.927 65.792,-21.927c36.335,0 65.792,21.927 65.792,21.927c-0,0 27.851,20.74 62.208,20.74c34.357,-0 62.208,-20.74 62.208,-20.74c0,0 29.457,-21.927 65.792,-21.927c25.461,0 47.519,4.958 58.479,12.006c5.639,3.626 8.521,7.961 8.521,12.327l0,468.449c-0,1.657 -1.343,3 -3,3l-1152,0c-1.657,0 -3,-1.343 -3,-3l0,-468.449c-0,-4.366 2.882,-8.701 8.521,-12.327c10.96,-7.048 33.018,-12.006 58.479,-12.006c36.335,0 65.792,21.927 65.792,21.927Zm-3.584,4.813c0,-0 -27.851,-20.74 -62.208,-20.74c-20.694,0 -39.047,3.298 -50.41,8.465c-3.497,1.59 -6.298,3.336 -8.205,5.245c-1.469,1.472 -2.385,2.987 -2.385,4.623c0,0 0,425.5 -0,465.449l1146,0l0,-465.449c-0,-1.636 -0.916,-3.151 -2.385,-4.623c-1.907,-1.909 -4.708,-3.655 -8.205,-5.245c-11.363,-5.167 -29.716,-8.465 -50.41,-8.465c-34.357,0 -62.208,20.74 -62.208,20.74c-0,-0 -29.457,21.927 -65.792,21.927c-36.335,-0 -65.792,-21.927 -65.792,-21.927c0,-0 -27.851,-20.74 -62.208,-20.74c-34.357,0 -62.208,20.74 -62.208,20.74c-0,-0 -29.457,21.927 -65.792,21.927c-36.335,-0 -65.792,-21.927 -65.792,-21.927c0,-0 -27.851,-20.74 -62.208,-20.74c-34.357,0 -62.208,20.74 -62.208,20.74c-0,-0 -29.457,21.927 -65.792,21.927c-36.335,-0 -65.792,-21.927 -65.792,-21.927c0,-0 -27.851,-20.74 -62.208,-20.74c-34.357,0 -62.208,20.74 -62.208,20.74c-0,-0 -29.457,21.927 -65.792,21.927c-36.335,-0 -65.792,-21.927 -65.792,-21.927Z" style="fill:#0d1a16;"/>
                <path d="M1128,785.315c0,0 28.654,21.334 64,21.334c35.346,-0 64,-21.334 64,-21.334c0,0 28.654,-21.333 64,-21.333c35.346,0 64,21.333 64,21.333c0,0 28.654,21.334 64,21.334c35.346,-0 64,-21.334 64,-21.334c0,0 28.654,-21.333 64,-21.333c35.346,0 64,21.333 64,21.333c0,0 28.654,21.334 64,21.334c35.346,-0 64,-21.334 64,-21.334c0,0 28.654,-21.333 64,-21.333c35.346,0 64,21.333 64,21.333c0,0 28.654,21.334 64,21.334c35.346,-0 64,-21.334 64,-21.334c0,0 28.654,-21.333 64,-21.333c35.346,0 64,9.551 64,21.333l0,468.449l-1152,0l0,-468.449c-0,-11.782 28.654,-21.333 64,-21.333c35.346,0 64,21.333 64,21.333Z" style="fill:#38665b;"/>
                <path d="M1129.79,782.909c-0,0 27.851,20.74 62.208,20.74c34.357,-0 62.208,-20.74 62.208,-20.74c0,0 29.457,-21.927 65.792,-21.927c36.335,0 65.792,21.927 65.792,21.927c-0,0 27.851,20.74 62.208,20.74c34.357,-0 62.208,-20.74 62.208,-20.74c0,0 29.457,-21.927 65.792,-21.927c36.335,0 65.792,21.927 65.792,21.927c-0,0 27.851,20.74 62.208,20.74c34.357,-0 62.208,-20.74 62.208,-20.74c0,0 29.457,-21.927 65.792,-21.927c36.335,0 65.792,21.927 65.792,21.927c-0,0 27.851,20.74 62.208,20.74c34.357,-0 62.208,-20.74 62.208,-20.74c0,0 29.457,-21.927 65.792,-21.927c25.461,0 47.519,4.958 58.479,12.006c5.639,3.627 8.521,7.961 8.521,12.327l0,468.449c-0,1.657 -1.343,3 -3,3l-1152,0c-1.657,0 -3,-1.343 -3,-3l0,-468.449c-0,-4.366 2.882,-8.7 8.521,-12.327c10.96,-7.048 33.018,-12.006 58.479,-12.006c36.335,0 65.792,21.927 65.792,21.927Zm-3.584,4.813c0,-0 -27.851,-20.74 -62.208,-20.74c-20.694,0 -39.047,3.298 -50.41,8.465c-3.497,1.59 -6.298,3.336 -8.205,5.245c-1.469,1.472 -2.385,2.987 -2.385,4.623l0,465.449c0,0 1146,0 1146,0l0,-465.449c-0,-1.636 -0.916,-3.151 -2.385,-4.623c-1.907,-1.909 -4.708,-3.655 -8.205,-5.245c-11.363,-5.167 -29.716,-8.465 -50.41,-8.465c-34.357,0 -62.208,20.74 -62.208,20.74c-0,-0 -29.457,21.927 -65.792,21.927c-36.335,-0 -65.792,-21.927 -65.792,-21.927c0,-0 -27.851,-20.74 -62.208,-20.74c-34.357,0 -62.208,20.74 -62.208,20.74c-0,-0 -29.457,21.927 -65.792,21.927c-36.335,-0 -65.792,-21.927 -65.792,-21.927c0,-0 -27.851,-20.74 -62.208,-20.74c-34.357,0 -62.208,20.74 -62.208,20.74c-0,-0 -29.457,21.927 -65.792,21.927c-36.335,-0 -65.792,-21.927 -65.792,-21.927c0,-0 -27.851,-20.74 -62.208,-20.74c-34.357,0 -62.208,20.74 -62.208,20.74c-0,-0 -29.457,21.927 -65.792,21.927c-36.335,-0 -65.792,-21.927 -65.792,-21.927Z" style="fill:#0d1a16;"/>
                <path d="M1064,849.315c0,0 28.654,21.334 64,21.334c35.346,-0 64,-21.334 64,-21.334c0,0 28.654,-21.333 64,-21.333c35.346,0 64,21.333 64,21.333c0,0 28.654,21.334 64,21.334c35.346,-0 64,-21.334 64,-21.334c0,0 28.654,-21.333 64,-21.333c35.346,0 64,21.333 64,21.333c0,0 28.654,21.334 64,21.334c35.346,-0 64,-21.334 64,-21.334c0,0 28.654,-21.333 64,-21.333c35.346,0 64,21.333 64,21.333c0,0 28.654,21.334 64,21.334c35.346,-0 64,-21.334 64,-21.334c0,0 28.654,-21.333 64,-21.333c35.346,0 64,9.551 64,21.333l0,468.449l-1152,0l0,-468.449c-0,-11.782 28.654,-21.333 64,-21.333c35.346,0 64,21.333 64,21.333Z" style="fill:#7ee6cc;"/>
                <path d="M1065.79,846.909c-0,0 27.851,20.74 62.208,20.74c34.357,-0 62.208,-20.74 62.208,-20.74c0,0 29.457,-21.927 65.792,-21.927c36.335,0 65.792,21.927 65.792,21.927c-0,0 27.851,20.74 62.208,20.74c34.357,-0 62.208,-20.74 62.208,-20.74c0,0 29.457,-21.927 65.792,-21.927c36.335,0 65.792,21.927 65.792,21.927c-0,0 27.851,20.74 62.208,20.74c34.357,-0 62.208,-20.74 62.208,-20.74c0,0 29.457,-21.927 65.792,-21.927c36.335,0 65.792,21.927 65.792,21.927c-0,0 27.851,20.74 62.208,20.74c34.357,-0 62.208,-20.74 62.208,-20.74c0,0 29.457,-21.927 65.792,-21.927c25.461,0 47.519,4.958 58.479,12.006c5.639,3.627 8.521,7.961 8.521,12.327l0,468.449c-0,1.657 -1.343,3 -3,3l-1152,0c-1.657,0 -3,-1.343 -3,-3l0,-468.449c-0,-4.366 2.882,-8.7 8.521,-12.327c10.96,-7.048 33.018,-12.006 58.479,-12.006c36.335,0 65.792,21.927 65.792,21.927Zm-3.584,4.813c0,-0 -27.851,-20.74 -62.208,-20.74c-20.694,0 -39.047,3.298 -50.41,8.465c-3.497,1.59 -6.298,3.336 -8.205,5.245c-1.469,1.472 -2.385,2.987 -2.385,4.623l0,465.449c0,0 1146,0 1146,0l0,-465.449c-0,-1.636 -0.916,-3.151 -2.385,-4.623c-1.907,-1.909 -4.708,-3.655 -8.205,-5.245c-11.363,-5.167 -29.716,-8.465 -50.41,-8.465c-34.357,0 -62.208,20.74 -62.208,20.74c-0,-0 -29.457,21.927 -65.792,21.927c-36.335,-0 -65.792,-21.927 -65.792,-21.927c0,-0 -27.851,-20.74 -62.208,-20.74c-34.357,0 -62.208,20.74 -62.208,20.74c-0,-0 -29.457,21.927 -65.792,21.927c-36.335,-0 -65.792,-21.927 -65.792,-21.927c0,-0 -27.851,-20.74 -62.208,-20.74c-34.357,0 -62.208,20.74 -62.208,20.74c-0,-0 -29.457,21.927 -65.792,21.927c-36.335,-0 -65.792,-21.927 -65.792,-21.927c0,-0 -27.851,-20.74 -62.208,-20.74c-34.357,0 -62.208,20.74 -62.208,20.74c-0,-0 -29.457,21.927 -65.792,21.927c-36.335,-0 -65.792,-21.927 -65.792,-21.927Z" style="fill:#0d1a16;"/>
                <path d="M1128,913.315c0,0 28.654,21.334 64,21.334c35.346,-0 64,-21.334 64,-21.334c0,0 28.654,-21.333 64,-21.333c35.346,0 64,21.333 64,21.333c0,0 28.654,21.334 64,21.334c35.346,-0 64,-21.334 64,-21.334c0,0 28.654,-21.333 64,-21.333c35.346,0 64,21.333 64,21.333c0,0 28.654,21.334 64,21.334c35.346,-0 64,-21.334 64,-21.334c0,0 28.654,-21.333 64,-21.333c35.346,0 64,21.333 64,21.333c0,0 28.654,21.334 64,21.334c35.346,-0 64,-21.334 64,-21.334c0,0 28.654,-21.333 64,-21.333c35.346,0 64,9.551 64,21.333l0,468.449l-1152,0l0,-468.449c-0,-11.782 28.654,-21.333 64,-21.333c35.346,0 64,21.333 64,21.333Z" style="fill:#38665b;"/>
                <path d="M1129.79,910.909c-0,0 27.851,20.74 62.208,20.74c34.357,-0 62.208,-20.74 62.208,-20.74c0,0 29.457,-21.927 65.792,-21.927c36.335,0 65.792,21.927 65.792,21.927c-0,0 27.851,20.74 62.208,20.74c34.357,-0 62.208,-20.74 62.208,-20.74c0,0 29.457,-21.927 65.792,-21.927c36.335,0 65.792,21.927 65.792,21.927c-0,0 27.851,20.74 62.208,20.74c34.357,-0 62.208,-20.74 62.208,-20.74c0,0 29.457,-21.927 65.792,-21.927c36.335,0 65.792,21.927 65.792,21.927c-0,0 27.851,20.74 62.208,20.74c34.357,-0 62.208,-20.74 62.208,-20.74c0,0 29.457,-21.927 65.792,-21.927c25.461,0 47.519,4.958 58.479,12.006c5.639,3.627 8.521,7.961 8.521,12.327l0,468.449c-0,1.657 -1.343,3 -3,3l-1152,0c-1.657,0 -3,-1.343 -3,-3l0,-468.449c-0,-4.366 2.882,-8.7 8.521,-12.327c10.96,-7.048 33.018,-12.006 58.479,-12.006c36.335,0 65.792,21.927 65.792,21.927Zm-3.584,4.813c0,-0 -27.851,-20.74 -62.208,-20.74c-20.694,0 -39.047,3.298 -50.41,8.465c-3.497,1.59 -6.298,3.336 -8.205,5.245c-1.469,1.472 -2.385,2.987 -2.385,4.623l0,465.449c64.457,0 1146,0 1146,0l0,-465.449c-0,-1.636 -0.916,-3.151 -2.385,-4.623c-1.907,-1.909 -4.708,-3.655 -8.205,-5.245c-11.363,-5.167 -29.716,-8.465 -50.41,-8.465c-34.357,0 -62.208,20.74 -62.208,20.74c-0,-0 -29.457,21.927 -65.792,21.927c-36.335,-0 -65.792,-21.927 -65.792,-21.927c0,-0 -27.851,-20.74 -62.208,-20.74c-34.357,0 -62.208,20.74 -62.208,20.74c-0,-0 -29.457,21.927 -65.792,21.927c-36.335,-0 -65.792,-21.927 -65.792,-21.927c0,-0 -27.851,-20.74 -62.208,-20.74c-34.357,0 -62.208,20.74 -62.208,20.74c-0,-0 -29.457,21.927 -65.792,21.927c-36.335,-0 -65.792,-21.927 -65.792,-21.927c0,-0 -27.851,-20.74 -62.208,-20.74c-34.357,0 -62.208,20.74 -62.208,20.74c-0,-0 -29.457,21.927 -65.792,21.927c-36.335,-0 -65.792,-21.927 -65.792,-21.927Z" style="fill:#0d1a16;"/>
                <path d="M1192,977.315c0,0 28.654,21.334 64,21.334c35.346,-0 64,-21.334 64,-21.334c0,0 28.654,-21.333 64,-21.333c35.346,0 64,21.333 64,21.333c0,0 28.654,21.334 64,21.334c35.346,-0 64,-21.334 64,-21.334c0,0 28.654,-21.333 64,-21.333c35.346,0 64,21.333 64,21.333c0,0 28.654,21.334 64,21.334c35.346,-0 64,-21.334 64,-21.334c0,0 28.654,-21.333 64,-21.333c35.346,0 64,21.333 64,21.333c0,0 28.654,21.334 64,21.334c35.346,-0 64,-21.334 64,-21.334c0,0 28.654,-21.333 64,-21.333c35.346,0 64,9.551 64,21.333l0,468.449l-1152,0l0,-468.449c-0,-11.782 28.654,-21.333 64,-21.333c35.346,0 64,21.333 64,21.333Z" style="fill:#7ee6cc;"/>
                <path d="M1193.79,974.909c-0,0 27.851,20.74 62.208,20.74c34.357,-0 62.208,-20.74 62.208,-20.74c0,0 29.457,-21.927 65.792,-21.927c36.335,0 65.792,21.927 65.792,21.927c-0,0 27.851,20.74 62.208,20.74c34.357,-0 62.208,-20.74 62.208,-20.74c0,0 29.457,-21.927 65.792,-21.927c36.335,0 65.792,21.927 65.792,21.927c-0,0 27.851,20.74 62.208,20.74c34.357,-0 62.208,-20.74 62.208,-20.74c0,0 29.457,-21.927 65.792,-21.927c36.335,0 65.792,21.927 65.792,21.927c-0,0 27.851,20.74 62.208,20.74c34.357,-0 62.208,-20.74 62.208,-20.74c0,0 29.457,-21.927 65.792,-21.927c25.461,0 47.519,4.958 58.479,12.006c5.639,3.627 8.521,7.961 8.521,12.327l0,468.449c-0,1.657 -1.343,3 -3,3l-1152,0c-1.657,0 -3,-1.343 -3,-3l0,-468.449c-0,-4.366 2.882,-8.7 8.521,-12.327c10.96,-7.048 33.018,-12.006 58.479,-12.006c36.335,0 65.792,21.927 65.792,21.927Zm-3.584,4.813c0,-0 -27.851,-20.74 -62.208,-20.74c-20.694,0 -39.047,3.298 -50.41,8.465c-3.497,1.59 -6.298,3.336 -8.205,5.245c-1.469,1.472 -2.385,2.987 -2.385,4.623l0,465.449c0,0 1146,0 1146,0l0,-465.449c-0,-1.636 -0.916,-3.151 -2.385,-4.623c-1.907,-1.909 -4.708,-3.655 -8.205,-5.245c-11.363,-5.167 -29.716,-8.465 -50.41,-8.465c-34.357,0 -62.208,20.74 -62.208,20.74c-0,-0 -29.457,21.927 -65.792,21.927c-36.335,-0 -65.792,-21.927 -65.792,-21.927c0,-0 -27.851,-20.74 -62.208,-20.74c-34.357,0 -62.208,20.74 -62.208,20.74c-0,-0 -29.457,21.927 -65.792,21.927c-36.335,-0 -65.792,-21.927 -65.792,-21.927c0,-0 -27.851,-20.74 -62.208,-20.74c-34.357,0 -62.208,20.74 -62.208,20.74c-0,-0 -29.457,21.927 -65.792,21.927c-36.335,-0 -65.792,-21.927 -65.792,-21.927c0,-0 -27.851,-20.74 -62.208,-20.74c-34.357,0 -62.208,20.74 -62.208,20.74c-0,-0 -29.457,21.927 -65.792,21.927c-36.335,-0 -65.792,-21.927 -65.792,-21.927Z" style="fill:#0d1a16;"/>
            </g>
            <circle cx="1464" cy="352" r="104" style="fill:#f2d479;"/>
            <path d="M1464,242c60.711,-0 110,49.289 110,110c0,60.711 -49.289,110 -110,110c-60.711,0 -110,-49.289 -110,-110c0,-60.711 49.289,-110 110,-110Zm0,6c-57.399,-0 -104,46.601 -104,104c0,57.399 46.601,104 104,104c57.399,0 104,-46.601 104,-104c0,-57.399 -46.601,-104 -104,-104Z" style="fill:#0d1a16;"/>
            <path d="M1464,256l12.123,66.731l55.759,-38.613l-38.613,55.759l66.731,12.123l-66.731,12.123l38.613,55.759l-55.759,-38.613l-12.123,66.731l-12.123,-66.731l-55.759,38.613l38.613,-55.759l-66.731,-12.123l66.731,-12.123l-38.613,-55.759l55.759,38.613l12.123,-66.731Z" style="fill:#e7ffff;"/>
            <path d="M1469.9,254.928l10.459,57.57l48.104,-33.313c2.384,-1.651 5.608,-1.361 7.659,0.69c2.051,2.051 2.341,5.275 0.69,7.659l-33.313,48.104l57.57,10.459c2.854,0.518 4.928,3.003 4.928,5.903c-0,2.9 -2.074,5.385 -4.928,5.903l-57.57,10.459l33.313,48.104c1.651,2.384 1.361,5.608 -0.69,7.659c-2.051,2.051 -5.275,2.341 -7.659,0.69l-48.104,-33.313l-10.459,57.57c-0.518,2.854 -3.003,4.928 -5.903,4.928c-2.9,0 -5.385,-2.074 -5.903,-4.928l-10.459,-57.57l-48.104,33.313c-2.384,1.651 -5.608,1.361 -7.659,-0.69c-2.051,-2.051 -2.341,-5.275 -0.69,-7.659l33.313,-48.104l-57.57,-10.459c-2.854,-0.518 -4.928,-3.003 -4.928,-5.903c-0,-2.9 2.074,-5.385 4.928,-5.903l57.57,-10.459l-33.313,-48.104c-1.651,-2.384 -1.361,-5.608 0.69,-7.659c2.051,-2.051 5.275,-2.341 7.659,-0.69l48.104,33.313l10.459,-57.57c0.518,-2.854 3.003,-4.928 5.903,-4.928c2.9,0 5.385,2.074 5.903,4.928Zm-5.903,1.072l-12.123,66.731l-55.759,-38.613l38.613,55.759l-66.731,12.123l66.731,12.123l-38.613,55.759l55.759,-38.613l12.123,66.731l12.123,-66.731l55.759,38.613l-38.613,-55.759l66.731,-12.123l-66.731,-12.123l38.613,-55.759l-55.759,38.613l-12.123,-66.731Z" style="fill:#0d1a16;"/>
            <path d="M1272,768c0,105.968 86.032,192 192,192c105.968,0 192,-86.032 192,-192c-16,79.476 -96.524,144 -192,144c-95.476,0 -176,-64.524 -192,-144Z" style="fill:#e7ffff;"/>
            <path d="M1277.88,766.816c15.494,76.961 93.664,139.184 186.118,139.184c92.454,-0 170.624,-62.223 186.118,-139.184c0.609,-3.023 3.409,-5.092 6.477,-4.786c3.068,0.305 5.405,2.887 5.405,5.97c0,109.279 -88.721,198 -198,198c-109.279,-0 -198,-88.721 -198,-198c0,-3.083 2.337,-5.665 5.405,-5.97c3.068,-0.306 5.868,1.763 6.477,4.786Zm-5.882,1.184c0,105.968 86.032,192 192,192c105.968,-0 192,-86.032 192,-192c-16,79.476 -96.524,144 -192,144c-95.476,0 -176,-64.524 -192,-144Z" style="fill:#0d1a16;"/>
        </g>
        <path d="M1848,540l-0,512l-768,0l0,-512c-0,-282.77 171.923,-512 384,-512c212.077,0 384,229.23 384,512Zm-24,-0c-0,-78.287 -14.057,-152.197 -38.988,-217.488c-59.492,-155.795 -180.905,-262.512 -321.012,-262.512c-21.611,-0 -42.778,2.539 -63.341,7.406c-46.006,10.888 -88.991,33.426 -127.18,65.246c-18.1,15.083 -35.123,32.25 -50.879,51.25c-72.837,87.835 -118.6,214.841 -118.6,356.098l0,480l720,0l0,-480Z" style="fill:#95b1ae;"/>
        <path d="M1860,540l-0,512c0,6.627 -5.373,12 -12,12l-768,0c-6.627,0 -12,-5.373 -12,-12l0,-512c-0,-290.194 178.354,-524 396,-524c217.646,0 396,233.806 396,524Zm-12,-0c-0,-282.77 -171.923,-512 -384,-512c-212.077,0 -384,229.23 -384,512l0,512l768,0l-0,-512Zm-24,-0l0,480l-720,0l0,-480c-0,-141.257 45.763,-268.263 118.6,-356.098c15.756,-19 32.779,-36.167 50.879,-51.25c38.189,-31.82 81.174,-54.358 127.18,-65.246c20.563,-4.867 41.73,-7.406 63.341,-7.406c140.107,-0 261.52,106.717 321.012,262.512c24.931,65.291 38.988,139.201 38.988,217.488Zm-12,-0c-0,-76.745 -13.758,-149.203 -38.199,-213.207c-57.545,-150.7 -174.277,-254.793 -309.801,-254.793c-20.668,-0 -40.911,2.429 -60.577,7.083c-44.237,10.469 -85.542,32.192 -122.262,62.789c-17.548,14.622 -34.048,31.269 -49.323,49.69c-71.258,85.93 -115.838,210.244 -115.838,348.438c0,0 0,468 -0,468c-0,0 696,0 696,0l-0,-468Z" style="fill:#2f3c39;"/>
    </g>
    <g transform="matrix(1,0,0,1,172.751,7.71766)">
        <g transform="matrix(144,0,0,144,141.529,399.514)">
            <path d="M0.272,0.012c0.139,0 0.223,-0.083 0.223,-0.187c0,-0.097 -0.057,-0.142 -0.135,-0.175l-0.093,-0.04c-0.052,-0.022 -0.109,-0.046 -0.109,-0.109c-0,-0.059 0.049,-0.096 0.122,-0.096c0.058,0 0.108,0.024 0.149,0.06l0.045,-0.054c-0.046,-0.046 -0.114,-0.079 -0.194,-0.079c-0.12,-0 -0.206,0.074 -0.206,0.174c-0,0.095 0.07,0.142 0.133,0.169l0.094,0.041c0.062,0.028 0.109,0.049 0.109,0.116c0,0.064 -0.051,0.107 -0.137,0.107c-0.07,-0 -0.137,-0.03 -0.184,-0.079l-0.047,0.054c0.057,0.061 0.136,0.098 0.23,0.098Z" style="fill:#e7ffff;fill-rule:nonzero;"/>
        </g>
        <g transform="matrix(144,0,0,144,215.545,399.514)">
            <path d="M0.226,-0l0.084,-0l0,-0.586l0.198,0l0,-0.07l-0.48,-0l-0,0.07l0.198,-0l-0,0.586Z" style="fill:#e7ffff;fill-rule:nonzero;"/>
        </g>
        <g transform="matrix(144,0,0,144,292.729,399.514)">
            <path d="M0.09,-0l0.388,-0l0,-0.071l-0.305,0l0,-0.238l0.249,0l0,-0.071l-0.249,0l0,-0.206l0.295,0l0,-0.07l-0.378,0l0,0.656Z" style="fill:#e7ffff;fill-rule:nonzero;"/>
        </g>
        <g transform="matrix(144,0,0,144,368.617,399.514)">
            <path d="M0.09,-0l0.37,-0l0,-0.071l-0.287,0l0,-0.585l-0.083,-0l0,0.656Z" style="fill:#e7ffff;fill-rule:nonzero;"/>
        </g>
        <g transform="matrix(144,0,0,144,438.601,399.514)">
            <path d="M0.09,-0l0.37,-0l0,-0.071l-0.287,0l0,-0.585l-0.083,-0l0,0.656Z" style="fill:#e7ffff;fill-rule:nonzero;"/>
        </g>
        <g transform="matrix(144,0,0,144,509.017,399.514)">
            <path d="M0.203,-0.367c0.024,-0.073 0.045,-0.145 0.065,-0.221l0.004,0c0.021,0.076 0.042,0.148 0.066,0.221l0.031,0.1l-0.197,0l0.031,-0.1Zm-0.2,0.367l0.085,-0l0.063,-0.2l0.239,0l0.062,0.2l0.089,-0l-0.222,-0.656l-0.094,0l-0.222,0.656Z" style="fill:#e7ffff;fill-rule:nonzero;"/>
        </g>
        <g transform="matrix(144,0,0,144,174.577,543.514)">
            <path d="M0.09,-0l0.076,-0l0,-0.361c0,-0.058 -0.006,-0.143 -0.012,-0.201l0.004,0l0.051,0.158l0.123,0.339l0.061,0l0.123,-0.339l0.051,-0.158l0.004,0c-0.005,0.058 -0.012,0.143 -0.012,0.201l0,0.361l0.078,0l0,-0.656l-0.104,0l-0.124,0.351c-0.016,0.045 -0.028,0.087 -0.042,0.136l-0.004,0c-0.015,-0.049 -0.029,-0.091 -0.044,-0.136l-0.124,-0.351l-0.105,0l-0,0.656Z" style="fill:#e7ffff;fill-rule:nonzero;"/>
        </g>
        <g transform="matrix(144,0,0,144,279.265,543.514)">
            <path d="M0.203,-0.367c0.024,-0.073 0.045,-0.145 0.065,-0.221l0.004,0c0.021,0.076 0.042,0.148 0.066,0.221l0.031,0.1l-0.197,0l0.031,-0.1Zm-0.2,0.367l0.085,-0l0.063,-0.2l0.239,0l0.062,0.2l0.089,-0l-0.222,-0.656l-0.094,0l-0.222,0.656Z" style="fill:#e7ffff;fill-rule:nonzero;"/>
        </g>
        <g transform="matrix(144,0,0,144,357.601,543.514)">
            <path d="M0.09,-0l0.083,-0l0,-0.277l0.119,0l0.158,0.277l0.094,-0l-0.167,-0.286c0.09,-0.022 0.148,-0.084 0.148,-0.186c0,-0.136 -0.096,-0.184 -0.23,-0.184l-0.205,0l0,0.656Zm0.083,-0.345l0,-0.244l0.11,0c0.102,0 0.159,0.031 0.159,0.117c0,0.085 -0.057,0.127 -0.159,0.127l-0.11,-0Z" style="fill:#e7ffff;fill-rule:nonzero;"/>
        </g>
        <g transform="matrix(144,0,0,144,439.537,543.514)">
            <rect x="0.09" y="-0.656" width="0.083" height="0.656" style="fill:#e7ffff;fill-rule:nonzero;"/>
        </g>
        <g transform="matrix(144,0,0,144,477.409,543.514)">
            <path d="M0.272,0.012c0.139,0 0.223,-0.083 0.223,-0.187c0,-0.097 -0.057,-0.142 -0.135,-0.175l-0.093,-0.04c-0.052,-0.022 -0.109,-0.046 -0.109,-0.109c-0,-0.059 0.049,-0.096 0.122,-0.096c0.058,0 0.108,0.024 0.149,0.06l0.045,-0.054c-0.046,-0.046 -0.114,-0.079 -0.194,-0.079c-0.12,-0 -0.206,0.074 -0.206,0.174c-0,0.095 0.07,0.142 0.133,0.169l0.094,0.041c0.062,0.028 0.109,0.049 0.109,0.116c0,0.064 -0.051,0.107 -0.137,0.107c-0.07,-0 -0.137,-0.03 -0.184,-0.079l-0.047,0.054c0.057,0.061 0.136,0.098 0.23,0.098Z" style="fill:#e7ffff;fill-rule:nonzero;"/>
        </g>
    </g>
    <path d="M374.376,772.8l4.656,-0l10.176,-31.488l-4.08,-0l-5.232,16.992c-1.152,3.792 -1.92,6.672 -3.024,10.416l-0.192,-0c-1.104,-3.744 -1.968,-6.624 -3.072,-10.416l-4.848,-16.992l-4.272,-0l9.888,31.488Z" style="fill:#e7ffff;fill-rule:nonzero;"/>
    <path d="M393.144,772.8l3.936,-0l-0,-23.328l-3.936,-0l-0,23.328Zm1.968,-28.128c1.536,-0 2.64,-1.008 2.64,-2.592c-0,-1.536 -1.104,-2.592 -2.64,-2.592c-1.536,-0 -2.64,1.056 -2.64,2.592c-0,1.584 1.104,2.592 2.64,2.592Z" style="fill:#e7ffff;fill-rule:nonzero;"/>
    <path d="M404.952,772.8l3.936,-0l-0,-16.896c2.16,-2.4 4.128,-3.6 5.856,-3.6c2.976,-0 4.368,1.872 4.368,6.24l-0,14.256l3.936,-0l-0,-16.896c2.16,-2.4 4.032,-3.6 5.856,-3.6c2.928,-0 4.32,1.872 4.32,6.24l0,14.256l3.936,-0l0,-14.784c0,-5.952 -2.304,-9.12 -7.104,-9.12c-2.832,-0 -5.232,1.824 -7.68,4.464c-0.96,-2.784 -2.88,-4.464 -6.432,-4.464c-2.784,-0 -5.232,1.728 -7.248,3.936l-0.144,-0l-0.336,-3.36l-3.264,-0l0,23.328Z" style="fill:#e7ffff;fill-rule:nonzero;"/>
    <path d="M463.608,773.376c2.976,0 5.568,-1.2 7.488,-3.072l-1.728,-2.4c-1.392,1.296 -3.312,2.208 -5.424,2.208c-4.32,0 -7.248,-3.6 -7.248,-8.928c-0,-5.376 3.12,-9.024 7.296,-9.024c2.016,0 3.504,0.768 4.704,1.872l1.968,-2.4c-1.584,-1.584 -3.744,-2.736 -6.816,-2.736c-6,0 -11.232,4.464 -11.232,12.288c-0,7.728 4.752,12.192 10.992,12.192Z" style="fill:#e7ffff;fill-rule:nonzero;"/>
    <path d="M484.296,773.376c5.712,0 10.8,-4.464 10.8,-12.192c-0,-7.824 -5.088,-12.288 -10.8,-12.288c-5.712,0 -10.8,4.464 -10.8,12.288c0,7.728 5.088,12.192 10.8,12.192Zm-0,-3.264c-3.984,0 -6.72,-3.6 -6.72,-8.928c0,-5.376 2.736,-9.024 6.72,-9.024c4.032,0 6.72,3.648 6.72,9.024c-0,5.328 -2.688,8.928 -6.72,8.928Z" style="fill:#e7ffff;fill-rule:nonzero;"/>
    <path d="M505.416,773.232c0.96,0 1.728,-0.144 2.256,-0.384l-0.528,-2.976c-0.384,0.096 -0.576,0.096 -0.816,0.096c-0.624,0 -1.152,-0.432 -1.152,-1.68l-0,-29.664l-3.936,-0l-0,29.376c-0,3.36 1.2,5.232 4.176,5.232Z" style="fill:#e7ffff;fill-rule:nonzero;"/>
    <path d="M522.552,773.376c5.712,0 10.8,-4.464 10.8,-12.192c0,-7.824 -5.088,-12.288 -10.8,-12.288c-5.712,0 -10.8,4.464 -10.8,12.288c0,7.728 5.088,12.192 10.8,12.192Zm0,-3.264c-3.984,0 -6.72,-3.6 -6.72,-8.928c0,-5.376 2.736,-9.024 6.72,-9.024c4.032,0 6.72,3.648 6.72,9.024c-0,5.328 -2.688,8.928 -6.72,8.928Z" style="fill:#e7ffff;fill-rule:nonzero;"/>
    <path d="M539.496,772.8l3.936,-0l-0,-14.976c1.584,-3.936 3.936,-5.376 5.904,-5.376c0.96,-0 1.44,0.096 2.16,0.288l0.864,-3.36c-0.768,-0.336 -1.488,-0.48 -2.496,-0.48c-2.688,-0 -5.088,1.872 -6.624,4.8l-0.144,-0l-0.336,-4.224l-3.264,0l0,23.328Z" style="fill:#e7ffff;fill-rule:nonzero;"/>
    <path d="M571.848,773.376c5.52,0 8.544,-3.168 8.544,-6.96c0,-4.224 -3.552,-5.808 -7.2,-7.104c-2.88,-1.008 -4.944,-1.872 -4.944,-3.984c0,-1.776 1.344,-3.36 4.272,-3.36c2.112,0 3.792,0.672 5.424,1.824l1.824,-2.256c-1.824,-1.536 -4.368,-2.64 -7.248,-2.64c-5.088,0 -8.064,2.88 -8.064,6.624c0,3.84 3.36,5.52 6.864,6.768c2.64,0.96 5.28,1.968 5.28,4.368c0,2.016 -1.536,3.648 -4.608,3.648c-2.88,0 -4.992,-0.912 -7.008,-2.592l-1.824,2.304c2.16,2.112 5.28,3.36 8.688,3.36Z" style="fill:#e7ffff;fill-rule:nonzero;"/>
    <path d="M595.128,773.376c2.976,0 5.568,-1.2 7.488,-3.072l-1.728,-2.4c-1.392,1.296 -3.312,2.208 -5.424,2.208c-4.32,0 -7.248,-3.6 -7.248,-8.928c0,-5.376 3.12,-9.024 7.296,-9.024c2.016,0 3.504,0.768 4.704,1.872l1.968,-2.4c-1.584,-1.584 -3.744,-2.736 -6.816,-2.736c-6,0 -11.232,4.464 -11.232,12.288c0,7.728 4.752,12.192 10.992,12.192Z" style="fill:#e7ffff;fill-rule:nonzero;"/>
    <path d="M607.752,772.8l3.936,-0l-0,-16.896c2.352,-2.352 3.984,-3.6 6.384,-3.6c3.072,-0 4.416,1.872 4.416,6.24l-0,14.256l3.936,-0l-0,-14.784c-0,-5.952 -2.208,-9.12 -7.104,-9.12c-3.216,-0 -5.568,1.728 -7.776,3.84l0.144,-4.8l-0,-9.312l-3.936,-0l-0,34.176Z" style="fill:#e7ffff;fill-rule:nonzero;"/>
    <path d="M642.696,752.112c3.6,0 5.664,2.448 5.664,6.96l-12.144,0c0.624,-4.992 3.6,-6.96 6.48,-6.96Zm0.624,21.264c3.168,0 5.664,-1.008 7.728,-2.4l-1.44,-2.592c-1.632,1.104 -3.6,1.776 -5.808,1.776c-3.936,0 -7.296,-2.736 -7.68,-7.968l15.6,0c0.144,-0.768 0.192,-1.536 0.192,-2.352c0,-6.624 -3.264,-10.944 -9.264,-10.944c-5.376,-0 -10.56,4.656 -10.56,12.24c0,7.728 4.944,12.24 11.232,12.24Z" style="fill:#e7ffff;fill-rule:nonzero;"/>
    <path d="M657.672,772.8l3.936,-0l0,-16.896c2.16,-2.4 4.128,-3.6 5.856,-3.6c2.976,-0 4.368,1.872 4.368,6.24l0,14.256l3.936,-0l0,-16.896c2.16,-2.4 4.032,-3.6 5.856,-3.6c2.928,-0 4.32,1.872 4.32,6.24l-0,14.256l3.936,-0l-0,-14.784c-0,-5.952 -2.304,-9.12 -7.104,-9.12c-2.832,-0 -5.232,1.824 -7.68,4.464c-0.96,-2.784 -2.88,-4.464 -6.432,-4.464c-2.784,-0 -5.232,1.728 -7.248,3.936l-0.144,-0l-0.336,-3.36l-3.264,-0l0,23.328Z" style="fill:#e7ffff;fill-rule:nonzero;"/>
    <path d="M706.296,752.112c3.6,0 5.664,2.448 5.664,6.96l-12.144,0c0.624,-4.992 3.6,-6.96 6.48,-6.96Zm0.624,21.264c3.168,0 5.664,-1.008 7.728,-2.4l-1.44,-2.592c-1.632,1.104 -3.6,1.776 -5.808,1.776c-3.936,0 -7.296,-2.736 -7.68,-7.968l15.6,0c0.144,-0.768 0.192,-1.536 0.192,-2.352c0,-6.624 -3.264,-10.944 -9.264,-10.944c-5.376,-0 -10.56,4.656 -10.56,12.24c-0,7.728 4.944,12.24 11.232,12.24Z" style="fill:#e7ffff;fill-rule:nonzero;"/>
</svg>
